%TF.GenerationSoftware,KiCad,Pcbnew,6.0.2+dfsg-1*%
%TF.CreationDate,2023-04-17T17:17:59+02:00*%
%TF.ProjectId,TransportPlatform_PCB,5472616e-7370-46f7-9274-506c6174666f,rev?*%
%TF.SameCoordinates,Original*%
%TF.FileFunction,Soldermask,Bot*%
%TF.FilePolarity,Negative*%
%FSLAX46Y46*%
G04 Gerber Fmt 4.6, Leading zero omitted, Abs format (unit mm)*
G04 Created by KiCad (PCBNEW 6.0.2+dfsg-1) date 2023-04-17 17:17:59*
%MOMM*%
%LPD*%
G01*
G04 APERTURE LIST*
%ADD10C,1.600000*%
%ADD11O,1.600000X1.600000*%
%ADD12C,2.500000*%
%ADD13R,1.700000X1.700000*%
%ADD14O,1.700000X1.700000*%
%ADD15C,5.000000*%
%ADD16R,1.600000X1.600000*%
%ADD17C,3.000000*%
%ADD18R,2.300000X1.500000*%
%ADD19O,2.300000X1.500000*%
G04 APERTURE END LIST*
D10*
%TO.C,R5*%
X125603000Y-39497000D03*
D11*
X115443000Y-39497000D03*
%TD*%
D10*
%TO.C,R2*%
X115570000Y-45085000D03*
D11*
X125730000Y-45085000D03*
%TD*%
D12*
%TO.C,J17*%
X58674000Y-86570000D03*
X63754000Y-86570000D03*
%TD*%
D13*
%TO.C,J8*%
X80645000Y-59355000D03*
D14*
X83185000Y-59355000D03*
X85725000Y-59355000D03*
X88265000Y-59355000D03*
X90805000Y-59355000D03*
X93345000Y-59355000D03*
X95885000Y-59355000D03*
X98425000Y-59355000D03*
%TD*%
D13*
%TO.C,J10*%
X86497000Y-32868000D03*
D14*
X89037000Y-32868000D03*
X91577000Y-32868000D03*
X94117000Y-32868000D03*
%TD*%
D15*
%TO.C,H4*%
X44450000Y-88900000D03*
%TD*%
D12*
%TO.C,J19*%
X76390000Y-90075000D03*
X81390000Y-90075000D03*
X86390000Y-90075000D03*
%TD*%
D16*
%TO.C,C5*%
X53076000Y-47415887D03*
D10*
X53076000Y-49915887D03*
%TD*%
D13*
%TO.C,JP1*%
X99187000Y-33015000D03*
D14*
X99187000Y-35555000D03*
%TD*%
D15*
%TO.C,H3*%
X199771000Y-88900000D03*
%TD*%
D13*
%TO.C,J11*%
X85979000Y-67056000D03*
D14*
X88519000Y-67056000D03*
X91059000Y-67056000D03*
X93599000Y-67056000D03*
%TD*%
D16*
%TO.C,C1*%
X80645000Y-35241113D03*
D10*
X80645000Y-32741113D03*
%TD*%
D15*
%TO.C,H1*%
X44323000Y-30861000D03*
%TD*%
D17*
%TO.C,F1*%
X44132000Y-74402000D03*
X69132000Y-74402000D03*
%TD*%
D13*
%TO.C,J18*%
X93868000Y-90424000D03*
D14*
X96408000Y-90424000D03*
X98948000Y-90424000D03*
%TD*%
D13*
%TO.C,J16*%
X69088000Y-54244000D03*
D14*
X69088000Y-56784000D03*
X69088000Y-59324000D03*
%TD*%
D10*
%TO.C,R1*%
X43815000Y-39370000D03*
D11*
X53975000Y-39370000D03*
%TD*%
D16*
%TO.C,C2*%
X66294000Y-33338888D03*
D10*
X66294000Y-35838888D03*
%TD*%
%TO.C,R9*%
X63500000Y-63119000D03*
D11*
X63500000Y-52959000D03*
%TD*%
D13*
%TO.C,J9*%
X80645000Y-46355000D03*
D14*
X83185000Y-46355000D03*
X85725000Y-46355000D03*
X88265000Y-46355000D03*
X90805000Y-46355000D03*
X93345000Y-46355000D03*
X95885000Y-46355000D03*
X98425000Y-46355000D03*
%TD*%
D13*
%TO.C,J4*%
X186988000Y-28702000D03*
D14*
X184448000Y-28702000D03*
%TD*%
D15*
%TO.C,H2*%
X199644000Y-30607000D03*
%TD*%
D10*
%TO.C,R3*%
X96837500Y-72961500D03*
D11*
X86677500Y-72961500D03*
%TD*%
D18*
%TO.C,U1*%
X45774000Y-51288000D03*
D19*
X45774000Y-48748000D03*
X45774000Y-46208000D03*
%TD*%
D13*
%TO.C,J3*%
X186988000Y-92329000D03*
D14*
X184448000Y-92329000D03*
%TD*%
D16*
%TO.C,C3*%
X57404000Y-55499000D03*
D10*
X57404000Y-57999000D03*
%TD*%
D16*
%TO.C,C4*%
X46298388Y-59763000D03*
D10*
X48798388Y-59763000D03*
%TD*%
%TO.C,R4*%
X96964500Y-79184500D03*
D11*
X86804500Y-79184500D03*
%TD*%
D10*
%TO.C,R8*%
X58166000Y-28702000D03*
D11*
X68326000Y-28702000D03*
%TD*%
D13*
%TO.C,J15*%
X58547000Y-34036000D03*
D14*
X56007000Y-34036000D03*
X53467000Y-34036000D03*
%TD*%
D13*
%TO.C,J14*%
X80633500Y-79176300D03*
D14*
X78093500Y-79176300D03*
%TD*%
D13*
%TO.C,J13*%
X80384500Y-73080300D03*
D14*
X77844500Y-73080300D03*
%TD*%
D13*
%TO.C,J2*%
X157978000Y-89769000D03*
D14*
X157978000Y-92309000D03*
X155438000Y-89769000D03*
X155438000Y-92309000D03*
X152898000Y-89769000D03*
X152898000Y-92309000D03*
X150358000Y-89769000D03*
X150358000Y-92309000D03*
X147818000Y-89769000D03*
X147818000Y-92309000D03*
X145278000Y-89769000D03*
X145278000Y-92309000D03*
X142738000Y-89769000D03*
X142738000Y-92309000D03*
X140198000Y-89769000D03*
X140198000Y-92309000D03*
X137658000Y-89769000D03*
X137658000Y-92309000D03*
X135118000Y-89769000D03*
X135118000Y-92309000D03*
X132578000Y-89769000D03*
X132578000Y-92309000D03*
X130038000Y-89769000D03*
X130038000Y-92309000D03*
X127498000Y-89769000D03*
X127498000Y-92309000D03*
X124958000Y-89769000D03*
X124958000Y-92309000D03*
X122418000Y-89769000D03*
X122418000Y-92309000D03*
X119878000Y-89769000D03*
X119878000Y-92309000D03*
X117338000Y-89769000D03*
X117338000Y-92309000D03*
X114798000Y-89769000D03*
X114798000Y-92309000D03*
X112258000Y-89769000D03*
X112258000Y-92309000D03*
%TD*%
D13*
%TO.C,J1*%
X157978000Y-28769000D03*
D14*
X157978000Y-31309000D03*
X155438000Y-28769000D03*
X155438000Y-31309000D03*
X152898000Y-28769000D03*
X152898000Y-31309000D03*
X150358000Y-28769000D03*
X150358000Y-31309000D03*
X147818000Y-28769000D03*
X147818000Y-31309000D03*
X145278000Y-28769000D03*
X145278000Y-31309000D03*
X142738000Y-28769000D03*
X142738000Y-31309000D03*
X140198000Y-28769000D03*
X140198000Y-31309000D03*
X137658000Y-28769000D03*
X137658000Y-31309000D03*
X135118000Y-28769000D03*
X135118000Y-31309000D03*
X132578000Y-28769000D03*
X132578000Y-31309000D03*
X130038000Y-28769000D03*
X130038000Y-31309000D03*
X127498000Y-28769000D03*
X127498000Y-31309000D03*
X124958000Y-28769000D03*
X124958000Y-31309000D03*
X122418000Y-28769000D03*
X122418000Y-31309000D03*
X119878000Y-28769000D03*
X119878000Y-31309000D03*
X117338000Y-28769000D03*
X117338000Y-31309000D03*
X114798000Y-28769000D03*
X114798000Y-31309000D03*
X112258000Y-28769000D03*
X112258000Y-31309000D03*
%TD*%
M02*
