M48
; DRILL file {KiCad 6.0.2+dfsg-1} date lun 17 abr 2023 17:17:52
; FORMAT={-:-/ absolute / inch / decimal}
; #@! TF.CreationDate,2023-04-17T17:17:52+02:00
; #@! TF.GenerationSoftware,Kicad,Pcbnew,6.0.2+dfsg-1
; #@! TF.FileFunction,Plated,1,2,PTH
FMAT,2
INCH
; #@! TA.AperFunction,Plated,PTH,ViaDrill
T1C0.0197
; #@! TA.AperFunction,Plated,PTH,ComponentDrill
T2C0.0315
; #@! TA.AperFunction,Plated,PTH,ComponentDrill
T3C0.0394
; #@! TA.AperFunction,Plated,PTH,ComponentDrill
T4C0.0591
; #@! TA.AperFunction,Plated,PTH,ComponentDrill
T5C0.0787
; #@! TA.AperFunction,Plated,PTH,ComponentDrill
T6C0.0984
%
G90
G05
T1
X2.465Y-1.705
X2.755Y-1.565
X2.915Y-2.07
X3.055Y-1.675
X3.12Y-2.64
X3.67Y-1.985
X3.95Y-2.595
X4.14Y-2.88
X4.1976Y-1.4255
X4.43Y-2.18
X5.25Y-1.425
X5.86Y-2.975
X6.02Y-1.525
T2
X1.725Y-1.55
X1.8228Y-2.3529
X1.9212Y-2.3529
X2.0896Y-1.8668
X2.0896Y-1.9652
X2.125Y-1.55
X2.26Y-2.185
X2.26Y-2.2834
X2.29Y-1.13
X2.5Y-2.085
X2.5Y-2.485
X2.61Y-1.3126
X2.61Y-1.411
X2.69Y-1.13
X3.175Y-1.289
X3.175Y-1.3874
X3.4125Y-2.8725
X3.4175Y-3.1175
X3.8125Y-2.8725
X3.8175Y-3.1175
X4.545Y-1.555
X4.55Y-1.775
X4.945Y-1.555
X4.95Y-1.775
T3
X1.8021Y-1.8192
X1.8021Y-1.9192
X1.8021Y-2.0192
X2.105Y-1.34
X2.205Y-1.34
X2.305Y-1.34
X2.72Y-2.1356
X2.72Y-2.2356
X2.72Y-2.3356
X3.0647Y-2.8772
X3.0745Y-3.1172
X3.1647Y-2.8772
X3.1745Y-3.1172
X3.175Y-1.825
X3.175Y-2.3368
X3.275Y-1.825
X3.275Y-2.3368
X3.375Y-1.825
X3.375Y-2.3368
X3.385Y-2.64
X3.4054Y-1.294
X3.475Y-1.825
X3.475Y-2.3368
X3.485Y-2.64
X3.5054Y-1.294
X3.575Y-1.825
X3.575Y-2.3368
X3.585Y-2.64
X3.6054Y-1.294
X3.675Y-1.825
X3.675Y-2.3368
X3.685Y-2.64
X3.6956Y-3.56
X3.7054Y-1.294
X3.775Y-1.825
X3.775Y-2.3368
X3.7956Y-3.56
X3.875Y-1.825
X3.875Y-2.3368
X3.8956Y-3.56
X3.905Y-1.2998
X3.905Y-1.3998
X4.4196Y-1.1326
X4.4196Y-1.2326
X4.4196Y-3.5342
X4.4196Y-3.6342
X4.5196Y-1.1326
X4.5196Y-1.2326
X4.5196Y-3.5342
X4.5196Y-3.6342
X4.6196Y-1.1326
X4.6196Y-1.2326
X4.6196Y-3.5342
X4.6196Y-3.6342
X4.7196Y-1.1326
X4.7196Y-1.2326
X4.7196Y-3.5342
X4.7196Y-3.6342
X4.8196Y-1.1326
X4.8196Y-1.2326
X4.8196Y-3.5342
X4.8196Y-3.6342
X4.9196Y-1.1326
X4.9196Y-1.2326
X4.9196Y-3.5342
X4.9196Y-3.6342
X5.0196Y-1.1326
X5.0196Y-1.2326
X5.0196Y-3.5342
X5.0196Y-3.6342
X5.1196Y-1.1326
X5.1196Y-1.2326
X5.1196Y-3.5342
X5.1196Y-3.6342
X5.2196Y-1.1326
X5.2196Y-1.2326
X5.2196Y-3.5342
X5.2196Y-3.6342
X5.3196Y-1.1326
X5.3196Y-1.2326
X5.3196Y-3.5342
X5.3196Y-3.6342
X5.4196Y-1.1326
X5.4196Y-1.2326
X5.4196Y-3.5342
X5.4196Y-3.6342
X5.5196Y-1.1326
X5.5196Y-1.2326
X5.5196Y-3.5342
X5.5196Y-3.6342
X5.6196Y-1.1326
X5.6196Y-1.2326
X5.6196Y-3.5342
X5.6196Y-3.6342
X5.7196Y-1.1326
X5.7196Y-1.2326
X5.7196Y-3.5342
X5.7196Y-3.6342
X5.8196Y-1.1326
X5.8196Y-1.2326
X5.8196Y-3.5342
X5.8196Y-3.6342
X5.9196Y-1.1326
X5.9196Y-1.2326
X5.9196Y-3.5342
X5.9196Y-3.6342
X6.0196Y-1.1326
X6.0196Y-1.2326
X6.0196Y-3.5342
X6.0196Y-3.6342
X6.1196Y-1.1326
X6.1196Y-1.2326
X6.1196Y-3.5342
X6.1196Y-3.6342
X6.2196Y-1.1326
X6.2196Y-1.2326
X6.2196Y-3.5342
X6.2196Y-3.6342
X7.2617Y-1.13
X7.2617Y-3.635
X7.3617Y-1.13
X7.3617Y-3.635
T4
X2.31Y-3.4083
X2.51Y-3.4083
X3.0075Y-3.5463
X3.2043Y-3.5463
X3.4012Y-3.5463
T5
X1.7375Y-2.9292
X2.7217Y-2.9292
T6
X1.745Y-1.215
X1.75Y-3.5
X7.86Y-1.205
X7.865Y-3.5
T0
M30
