%TF.GenerationSoftware,KiCad,Pcbnew,6.0.2+dfsg-1*%
%TF.CreationDate,2023-04-17T17:17:59+02:00*%
%TF.ProjectId,TransportPlatform_PCB,5472616e-7370-46f7-9274-506c6174666f,rev?*%
%TF.SameCoordinates,Original*%
%TF.FileFunction,Legend,Top*%
%TF.FilePolarity,Positive*%
%FSLAX46Y46*%
G04 Gerber Fmt 4.6, Leading zero omitted, Abs format (unit mm)*
G04 Created by KiCad (PCBNEW 6.0.2+dfsg-1) date 2023-04-17 17:17:59*
%MOMM*%
%LPD*%
G01*
G04 APERTURE LIST*
%ADD10C,0.150000*%
%ADD11C,0.120000*%
G04 APERTURE END LIST*
D10*
%TO.C,J17*%
X60404476Y-88562380D02*
X60404476Y-89276666D01*
X60356857Y-89419523D01*
X60261619Y-89514761D01*
X60118761Y-89562380D01*
X60023523Y-89562380D01*
X61404476Y-89562380D02*
X60833047Y-89562380D01*
X61118761Y-89562380D02*
X61118761Y-88562380D01*
X61023523Y-88705238D01*
X60928285Y-88800476D01*
X60833047Y-88848095D01*
X61737809Y-88562380D02*
X62404476Y-88562380D01*
X61975904Y-89562380D01*
%TO.C,R1*%
X48728333Y-37452380D02*
X48395000Y-36976190D01*
X48156904Y-37452380D02*
X48156904Y-36452380D01*
X48537857Y-36452380D01*
X48633095Y-36500000D01*
X48680714Y-36547619D01*
X48728333Y-36642857D01*
X48728333Y-36785714D01*
X48680714Y-36880952D01*
X48633095Y-36928571D01*
X48537857Y-36976190D01*
X48156904Y-36976190D01*
X49680714Y-37452380D02*
X49109285Y-37452380D01*
X49395000Y-37452380D02*
X49395000Y-36452380D01*
X49299761Y-36595238D01*
X49204523Y-36690476D01*
X49109285Y-36738095D01*
%TO.C,U1*%
X37666380Y-49509904D02*
X38475904Y-49509904D01*
X38571142Y-49462285D01*
X38618761Y-49414666D01*
X38666380Y-49319428D01*
X38666380Y-49128952D01*
X38618761Y-49033714D01*
X38571142Y-48986095D01*
X38475904Y-48938476D01*
X37666380Y-48938476D01*
X38666380Y-47938476D02*
X38666380Y-48509904D01*
X38666380Y-48224190D02*
X37666380Y-48224190D01*
X37809238Y-48319428D01*
X37904476Y-48414666D01*
X37952095Y-48509904D01*
D11*
%TO.C,R5*%
X117253000Y-38127000D02*
X117253000Y-40867000D01*
X123793000Y-38127000D02*
X117253000Y-38127000D01*
X116483000Y-39497000D02*
X117253000Y-39497000D01*
X117253000Y-40867000D02*
X123793000Y-40867000D01*
X123793000Y-40867000D02*
X123793000Y-38127000D01*
X124563000Y-39497000D02*
X123793000Y-39497000D01*
%TO.C,R2*%
X116610000Y-45085000D02*
X117380000Y-45085000D01*
X117380000Y-43715000D02*
X117380000Y-46455000D01*
X124690000Y-45085000D02*
X123920000Y-45085000D01*
X123920000Y-46455000D02*
X123920000Y-43715000D01*
X117380000Y-46455000D02*
X123920000Y-46455000D01*
X123920000Y-43715000D02*
X117380000Y-43715000D01*
%TO.C,J17*%
X66894000Y-84470000D02*
X66894000Y-96570000D01*
X55534000Y-96570000D02*
X66894000Y-96570000D01*
X66894000Y-84470000D02*
X55534000Y-84470000D01*
X55534000Y-84470000D02*
X55534000Y-96570000D01*
%TO.C,J8*%
X99755000Y-60685000D02*
X99755000Y-58025000D01*
X81915000Y-58025000D02*
X99755000Y-58025000D01*
X79315000Y-59355000D02*
X79315000Y-58025000D01*
X81915000Y-60685000D02*
X81915000Y-58025000D01*
X79315000Y-58025000D02*
X80645000Y-58025000D01*
X81915000Y-60685000D02*
X99755000Y-60685000D01*
%TO.C,J10*%
X87767000Y-31538000D02*
X95447000Y-31538000D01*
X87767000Y-34198000D02*
X95447000Y-34198000D01*
X85167000Y-31538000D02*
X86497000Y-31538000D01*
X87767000Y-34198000D02*
X87767000Y-31538000D01*
X95447000Y-34198000D02*
X95447000Y-31538000D01*
X85167000Y-32868000D02*
X85167000Y-31538000D01*
%TO.C,J19*%
X73890000Y-94075000D02*
X88890000Y-94075000D01*
X88890000Y-94075000D02*
X88890000Y-86075000D01*
X88890000Y-86075000D02*
X73890000Y-86075000D01*
X73890000Y-86075000D02*
X73890000Y-94075000D01*
%TO.C,C5*%
X52036000Y-49305887D02*
X50575000Y-49305887D01*
X53991000Y-51106887D02*
X52161000Y-51106887D01*
X55141000Y-50226887D02*
X54116000Y-50226887D01*
X53881000Y-51146887D02*
X52271000Y-51146887D01*
X54977000Y-50426887D02*
X54116000Y-50426887D01*
X52036000Y-48985887D02*
X50515000Y-48985887D01*
X55645000Y-48905887D02*
X54116000Y-48905887D01*
X55587000Y-49265887D02*
X54116000Y-49265887D01*
X54087000Y-51066887D02*
X52065000Y-51066887D01*
X52036000Y-50666887D02*
X51423000Y-50666887D01*
X55441000Y-49706887D02*
X54116000Y-49706887D01*
X55276000Y-50026887D02*
X54116000Y-50026887D01*
X52036000Y-50746887D02*
X51522000Y-50746887D01*
X54630000Y-50746887D02*
X54116000Y-50746887D01*
X55567000Y-49345887D02*
X54116000Y-49345887D01*
X55556000Y-49386887D02*
X54116000Y-49386887D01*
X55386000Y-49826887D02*
X54116000Y-49826887D01*
X55323000Y-49946887D02*
X54116000Y-49946887D01*
X52036000Y-50026887D02*
X50876000Y-50026887D01*
X52036000Y-49265887D02*
X50565000Y-49265887D01*
X52036000Y-49986887D02*
X50852000Y-49986887D01*
X55474000Y-49626887D02*
X54116000Y-49626887D01*
X55655000Y-48745887D02*
X50497000Y-48745887D01*
X52036000Y-49025887D02*
X50520000Y-49025887D01*
X53594000Y-51226887D02*
X52558000Y-51226887D01*
X53360000Y-51266887D02*
X52792000Y-51266887D01*
X52036000Y-49666887D02*
X50694000Y-49666887D01*
X52036000Y-50106887D02*
X50927000Y-50106887D01*
X52036000Y-49145887D02*
X50540000Y-49145887D01*
X52036000Y-50706887D02*
X51471000Y-50706887D01*
X55612000Y-49145887D02*
X54116000Y-49145887D01*
X55632000Y-49025887D02*
X54116000Y-49025887D01*
X55080000Y-50306887D02*
X54116000Y-50306887D01*
X55656000Y-48705887D02*
X50496000Y-48705887D01*
X52036000Y-48945887D02*
X50511000Y-48945887D01*
X52036000Y-50146887D02*
X50954000Y-50146887D01*
X52036000Y-49185887D02*
X50548000Y-49185887D01*
X54940000Y-50466887D02*
X54116000Y-50466887D01*
X52036000Y-49105887D02*
X50533000Y-49105887D01*
X52036000Y-50826887D02*
X51633000Y-50826887D01*
X54254000Y-50986887D02*
X51898000Y-50986887D01*
X54395000Y-50906887D02*
X54116000Y-50906887D01*
X52036000Y-49866887D02*
X50786000Y-49866887D01*
X55637000Y-48985887D02*
X54116000Y-48985887D01*
X52036000Y-49345887D02*
X50585000Y-49345887D01*
X54459000Y-50866887D02*
X54116000Y-50866887D01*
X55596000Y-49225887D02*
X54116000Y-49225887D01*
X52036000Y-50066887D02*
X50901000Y-50066887D01*
X55577000Y-49305887D02*
X54116000Y-49305887D01*
X53753000Y-51186887D02*
X52399000Y-51186887D01*
X52036000Y-50506887D02*
X51250000Y-50506887D01*
X55366000Y-49866887D02*
X54116000Y-49866887D01*
X52036000Y-50346887D02*
X51105000Y-50346887D01*
X52036000Y-50946887D02*
X51825000Y-50946887D01*
X52036000Y-50386887D02*
X51139000Y-50386887D01*
X55518000Y-49506887D02*
X54116000Y-49506887D01*
X55619000Y-49105887D02*
X54116000Y-49105887D01*
X55344000Y-49906887D02*
X54116000Y-49906887D01*
X52036000Y-50426887D02*
X51175000Y-50426887D01*
X52036000Y-49586887D02*
X50662000Y-49586887D01*
X52036000Y-49506887D02*
X50634000Y-49506887D01*
X52036000Y-49626887D02*
X50678000Y-49626887D01*
X52036000Y-49386887D02*
X50596000Y-49386887D01*
X55490000Y-49586887D02*
X54116000Y-49586887D01*
X52036000Y-50266887D02*
X51041000Y-50266887D01*
X55013000Y-50386887D02*
X54116000Y-50386887D01*
X52036000Y-50306887D02*
X51072000Y-50306887D01*
X52036000Y-49466887D02*
X50621000Y-49466887D01*
X52036000Y-49065887D02*
X50526000Y-49065887D01*
X55300000Y-49986887D02*
X54116000Y-49986887D01*
X55656000Y-48665887D02*
X50496000Y-48665887D01*
X54551000Y-45861112D02*
X54551000Y-46361112D01*
X52036000Y-50906887D02*
X51757000Y-50906887D01*
X54519000Y-50826887D02*
X54116000Y-50826887D01*
X52036000Y-49706887D02*
X50711000Y-49706887D01*
X55654000Y-48785887D02*
X50498000Y-48785887D01*
X52036000Y-49826887D02*
X50766000Y-49826887D01*
X55198000Y-50146887D02*
X54116000Y-50146887D01*
X52036000Y-48905887D02*
X50507000Y-48905887D01*
X55531000Y-49466887D02*
X54116000Y-49466887D01*
X52036000Y-50786887D02*
X51576000Y-50786887D01*
X55641000Y-48945887D02*
X54116000Y-48945887D01*
X54681000Y-50706887D02*
X54116000Y-50706887D01*
X52036000Y-50546887D02*
X51291000Y-50546887D01*
X54775000Y-50626887D02*
X54116000Y-50626887D01*
X54902000Y-50506887D02*
X54116000Y-50506887D01*
X52036000Y-49546887D02*
X50648000Y-49546887D01*
X52036000Y-49786887D02*
X50747000Y-49786887D01*
X52036000Y-49225887D02*
X50556000Y-49225887D01*
X54861000Y-50546887D02*
X54116000Y-50546887D01*
X54801000Y-46111112D02*
X54301000Y-46111112D01*
X55111000Y-50266887D02*
X54116000Y-50266887D01*
X55504000Y-49546887D02*
X54116000Y-49546887D01*
X52036000Y-50466887D02*
X51212000Y-50466887D01*
X55225000Y-50106887D02*
X54116000Y-50106887D01*
X55649000Y-48865887D02*
X50503000Y-48865887D01*
X54174000Y-51026887D02*
X51978000Y-51026887D01*
X55405000Y-49786887D02*
X54116000Y-49786887D01*
X55652000Y-48825887D02*
X50500000Y-48825887D01*
X54729000Y-50666887D02*
X54116000Y-50666887D01*
X52036000Y-49906887D02*
X50808000Y-49906887D01*
X55251000Y-50066887D02*
X54116000Y-50066887D01*
X55047000Y-50346887D02*
X54116000Y-50346887D01*
X52036000Y-50586887D02*
X51333000Y-50586887D01*
X52036000Y-50626887D02*
X51377000Y-50626887D01*
X52036000Y-49426887D02*
X50608000Y-49426887D01*
X55544000Y-49426887D02*
X54116000Y-49426887D01*
X54819000Y-50586887D02*
X54116000Y-50586887D01*
X52036000Y-50186887D02*
X50981000Y-50186887D01*
X52036000Y-49946887D02*
X50829000Y-49946887D01*
X52036000Y-50226887D02*
X51011000Y-50226887D01*
X55626000Y-49065887D02*
X54116000Y-49065887D01*
X55424000Y-49746887D02*
X54116000Y-49746887D01*
X55604000Y-49185887D02*
X54116000Y-49185887D01*
X52036000Y-49746887D02*
X50728000Y-49746887D01*
X55171000Y-50186887D02*
X54116000Y-50186887D01*
X55458000Y-49666887D02*
X54116000Y-49666887D01*
X54327000Y-50946887D02*
X54116000Y-50946887D01*
X54576000Y-50786887D02*
X54116000Y-50786887D01*
X52036000Y-50866887D02*
X51693000Y-50866887D01*
X55696000Y-48665887D02*
G75*
G03*
X55696000Y-48665887I-2620000J0D01*
G01*
%TO.C,JP1*%
X97857000Y-31685000D02*
X99187000Y-31685000D01*
X97857000Y-34285000D02*
X97857000Y-36885000D01*
X97857000Y-34285000D02*
X100517000Y-34285000D01*
X97857000Y-36885000D02*
X100517000Y-36885000D01*
X100517000Y-34285000D02*
X100517000Y-36885000D01*
X97857000Y-33015000D02*
X97857000Y-31685000D01*
%TO.C,J11*%
X87249000Y-68386000D02*
X87249000Y-65726000D01*
X94929000Y-68386000D02*
X94929000Y-65726000D01*
X84649000Y-68386000D02*
X84649000Y-67056000D01*
X87249000Y-65726000D02*
X94929000Y-65726000D01*
X85979000Y-68386000D02*
X84649000Y-68386000D01*
X87249000Y-68386000D02*
X94929000Y-68386000D01*
%TO.C,C1*%
X78398000Y-32710113D02*
X79605000Y-32710113D01*
X81685000Y-33551113D02*
X83188000Y-33551113D01*
X78072000Y-33791113D02*
X83218000Y-33791113D01*
X81685000Y-32670113D02*
X82869000Y-32670113D01*
X78231000Y-33070113D02*
X79605000Y-33070113D01*
X78523000Y-32510113D02*
X79605000Y-32510113D01*
X78781000Y-32190113D02*
X79605000Y-32190113D01*
X78247000Y-33030113D02*
X79605000Y-33030113D01*
X78263000Y-32990113D02*
X79605000Y-32990113D01*
X81685000Y-31830113D02*
X82088000Y-31830113D01*
X81685000Y-31990113D02*
X82298000Y-31990113D01*
X78217000Y-33110113D02*
X79605000Y-33110113D01*
X81685000Y-33070113D02*
X83059000Y-33070113D01*
X79326000Y-31750113D02*
X79605000Y-31750113D01*
X78065000Y-33951113D02*
X83225000Y-33951113D01*
X78610000Y-32390113D02*
X79605000Y-32390113D01*
X78065000Y-33991113D02*
X83225000Y-33991113D01*
X81685000Y-33671113D02*
X83206000Y-33671113D01*
X79730000Y-31550113D02*
X81560000Y-31550113D01*
X78280000Y-32950113D02*
X79605000Y-32950113D01*
X78297000Y-32910113D02*
X79605000Y-32910113D01*
X78470000Y-32590113D02*
X79605000Y-32590113D01*
X81685000Y-33030113D02*
X83043000Y-33030113D01*
X78117000Y-33471113D02*
X79605000Y-33471113D01*
X78902000Y-32070113D02*
X79605000Y-32070113D01*
X81685000Y-32470113D02*
X82740000Y-32470113D01*
X78066000Y-33911113D02*
X83224000Y-33911113D01*
X79091000Y-31910113D02*
X79605000Y-31910113D01*
X81685000Y-33190113D02*
X83100000Y-33190113D01*
X81685000Y-32150113D02*
X82471000Y-32150113D01*
X81685000Y-32630113D02*
X82845000Y-32630113D01*
X81685000Y-33711113D02*
X83210000Y-33711113D01*
X81685000Y-33511113D02*
X83181000Y-33511113D01*
X81685000Y-31710113D02*
X81896000Y-31710113D01*
X81685000Y-33471113D02*
X83173000Y-33471113D01*
X78445000Y-32630113D02*
X79605000Y-32630113D01*
X78920000Y-36545888D02*
X79420000Y-36545888D01*
X79262000Y-31790113D02*
X79605000Y-31790113D01*
X79547000Y-31630113D02*
X81743000Y-31630113D01*
X78144000Y-33351113D02*
X79605000Y-33351113D01*
X81685000Y-32310113D02*
X82616000Y-32310113D01*
X81685000Y-32710113D02*
X82892000Y-32710113D01*
X78674000Y-32310113D02*
X79605000Y-32310113D01*
X78744000Y-32230113D02*
X79605000Y-32230113D01*
X79968000Y-31470113D02*
X81322000Y-31470113D01*
X81685000Y-32950113D02*
X83010000Y-32950113D01*
X78190000Y-33190113D02*
X79605000Y-33190113D01*
X81685000Y-33110113D02*
X83073000Y-33110113D01*
X81685000Y-31910113D02*
X82199000Y-31910113D01*
X79634000Y-31590113D02*
X81656000Y-31590113D01*
X78203000Y-33150113D02*
X79605000Y-33150113D01*
X78641000Y-32350113D02*
X79605000Y-32350113D01*
X81685000Y-32750113D02*
X82913000Y-32750113D01*
X78580000Y-32430113D02*
X79605000Y-32430113D01*
X81685000Y-32910113D02*
X82993000Y-32910113D01*
X81685000Y-33751113D02*
X83214000Y-33751113D01*
X78089000Y-33631113D02*
X79605000Y-33631113D01*
X81685000Y-32230113D02*
X82546000Y-32230113D01*
X81685000Y-33150113D02*
X83087000Y-33150113D01*
X81685000Y-32030113D02*
X82344000Y-32030113D01*
X81685000Y-32870113D02*
X82974000Y-32870113D01*
X78708000Y-32270113D02*
X79605000Y-32270113D01*
X81685000Y-32550113D02*
X82794000Y-32550113D01*
X81685000Y-32830113D02*
X82955000Y-32830113D01*
X78421000Y-32670113D02*
X79605000Y-32670113D01*
X81685000Y-31790113D02*
X82028000Y-31790113D01*
X78819000Y-32150113D02*
X79605000Y-32150113D01*
X78069000Y-33831113D02*
X83221000Y-33831113D01*
X78377000Y-32750113D02*
X79605000Y-32750113D01*
X78154000Y-33311113D02*
X79605000Y-33311113D01*
X78496000Y-32550113D02*
X79605000Y-32550113D01*
X78067000Y-33871113D02*
X83223000Y-33871113D01*
X81685000Y-33270113D02*
X83125000Y-33270113D01*
X78992000Y-31990113D02*
X79605000Y-31990113D01*
X81685000Y-32510113D02*
X82767000Y-32510113D01*
X80361000Y-31390113D02*
X80929000Y-31390113D01*
X78165000Y-33270113D02*
X79605000Y-33270113D01*
X78335000Y-32830113D02*
X79605000Y-32830113D01*
X78316000Y-32870113D02*
X79605000Y-32870113D01*
X81685000Y-33591113D02*
X83195000Y-33591113D01*
X81685000Y-31870113D02*
X82145000Y-31870113D01*
X81685000Y-32590113D02*
X82820000Y-32590113D01*
X78355000Y-32790113D02*
X79605000Y-32790113D01*
X79170000Y-36795888D02*
X79170000Y-36295888D01*
X81685000Y-32350113D02*
X82649000Y-32350113D01*
X79202000Y-31830113D02*
X79605000Y-31830113D01*
X78084000Y-33671113D02*
X79605000Y-33671113D01*
X79145000Y-31870113D02*
X79605000Y-31870113D01*
X78080000Y-33711113D02*
X79605000Y-33711113D01*
X81685000Y-33631113D02*
X83201000Y-33631113D01*
X81685000Y-32790113D02*
X82935000Y-32790113D01*
X78860000Y-32110113D02*
X79605000Y-32110113D01*
X78134000Y-33391113D02*
X79605000Y-33391113D01*
X78109000Y-33511113D02*
X79605000Y-33511113D01*
X78125000Y-33431113D02*
X79605000Y-33431113D01*
X81685000Y-33431113D02*
X83165000Y-33431113D01*
X79040000Y-31950113D02*
X79605000Y-31950113D01*
X78076000Y-33751113D02*
X79605000Y-33751113D01*
X79467000Y-31670113D02*
X81823000Y-31670113D01*
X79394000Y-31710113D02*
X79605000Y-31710113D01*
X81685000Y-32110113D02*
X82430000Y-32110113D01*
X81685000Y-32430113D02*
X82710000Y-32430113D01*
X81685000Y-32390113D02*
X82680000Y-32390113D01*
X80127000Y-31430113D02*
X81163000Y-31430113D01*
X81685000Y-32270113D02*
X82582000Y-32270113D01*
X81685000Y-33311113D02*
X83136000Y-33311113D01*
X78102000Y-33551113D02*
X79605000Y-33551113D01*
X81685000Y-32070113D02*
X82388000Y-32070113D01*
X78177000Y-33230113D02*
X79605000Y-33230113D01*
X81685000Y-31950113D02*
X82250000Y-31950113D01*
X78550000Y-32470113D02*
X79605000Y-32470113D01*
X79840000Y-31510113D02*
X81450000Y-31510113D01*
X81685000Y-32990113D02*
X83027000Y-32990113D01*
X81685000Y-33391113D02*
X83156000Y-33391113D01*
X81685000Y-32190113D02*
X82509000Y-32190113D01*
X81685000Y-31750113D02*
X81964000Y-31750113D01*
X81685000Y-33230113D02*
X83113000Y-33230113D01*
X78095000Y-33591113D02*
X79605000Y-33591113D01*
X81685000Y-33351113D02*
X83146000Y-33351113D01*
X78946000Y-32030113D02*
X79605000Y-32030113D01*
X83265000Y-33991113D02*
G75*
G03*
X83265000Y-33991113I-2620000J0D01*
G01*
%TO.C,F1*%
X41632000Y-70402000D02*
X71632000Y-70402000D01*
X71632000Y-70402000D02*
X71632000Y-78402000D01*
X71632000Y-78402000D02*
X41632000Y-78402000D01*
X41632000Y-78402000D02*
X41632000Y-70402000D01*
%TO.C,J18*%
X95138000Y-91754000D02*
X100278000Y-91754000D01*
X95138000Y-89094000D02*
X100278000Y-89094000D01*
X92538000Y-91754000D02*
X92538000Y-90424000D01*
X93868000Y-91754000D02*
X92538000Y-91754000D01*
X100278000Y-91754000D02*
X100278000Y-89094000D01*
X95138000Y-91754000D02*
X95138000Y-89094000D01*
%TO.C,D1*%
X57900900Y-43784900D02*
X59100900Y-43784900D01*
X59100900Y-43784900D02*
X59100900Y-39784900D01*
X59100900Y-39784900D02*
X57900900Y-39784900D01*
X57900900Y-39784900D02*
X57900900Y-43784900D01*
%TO.C,J16*%
X70418000Y-55514000D02*
X70418000Y-60654000D01*
X67758000Y-60654000D02*
X70418000Y-60654000D01*
X67758000Y-52914000D02*
X69088000Y-52914000D01*
X67758000Y-55514000D02*
X70418000Y-55514000D01*
X67758000Y-55514000D02*
X67758000Y-60654000D01*
X67758000Y-54244000D02*
X67758000Y-52914000D01*
%TO.C,R1*%
X52165000Y-40740000D02*
X52165000Y-38000000D01*
X52165000Y-38000000D02*
X45625000Y-38000000D01*
X45625000Y-40740000D02*
X52165000Y-40740000D01*
X45625000Y-38000000D02*
X45625000Y-40740000D01*
X52935000Y-39370000D02*
X52165000Y-39370000D01*
X44855000Y-39370000D02*
X45625000Y-39370000D01*
%TO.C,C2*%
X65254000Y-36069888D02*
X64172000Y-36069888D01*
X65254000Y-36869888D02*
X65043000Y-36869888D01*
X68795000Y-35228888D02*
X67334000Y-35228888D01*
X65254000Y-35589888D02*
X63912000Y-35589888D01*
X68265000Y-36269888D02*
X67334000Y-36269888D01*
X65254000Y-36109888D02*
X64199000Y-36109888D01*
X67099000Y-37069888D02*
X65489000Y-37069888D01*
X65254000Y-35429888D02*
X63852000Y-35429888D01*
X68822000Y-35108888D02*
X67334000Y-35108888D01*
X65254000Y-36549888D02*
X64595000Y-36549888D01*
X68443000Y-36029888D02*
X67334000Y-36029888D01*
X67305000Y-36989888D02*
X65283000Y-36989888D01*
X66812000Y-37149888D02*
X65776000Y-37149888D01*
X68872000Y-34708888D02*
X63716000Y-34708888D01*
X68867000Y-34788888D02*
X63721000Y-34788888D01*
X68692000Y-35549888D02*
X67334000Y-35549888D01*
X66971000Y-37109888D02*
X65617000Y-37109888D01*
X68805000Y-35188888D02*
X67334000Y-35188888D01*
X65254000Y-35349888D02*
X63826000Y-35349888D01*
X67472000Y-36909888D02*
X65116000Y-36909888D01*
X68298000Y-36229888D02*
X67334000Y-36229888D01*
X68708000Y-35509888D02*
X67334000Y-35509888D01*
X67677000Y-36789888D02*
X67334000Y-36789888D01*
X65254000Y-36269888D02*
X64323000Y-36269888D01*
X68079000Y-36469888D02*
X67334000Y-36469888D01*
X65254000Y-35389888D02*
X63839000Y-35389888D01*
X68762000Y-35349888D02*
X67334000Y-35349888D01*
X65254000Y-36669888D02*
X64740000Y-36669888D01*
X68584000Y-35789888D02*
X67334000Y-35789888D01*
X65254000Y-34908888D02*
X63733000Y-34908888D01*
X68623000Y-35709888D02*
X67334000Y-35709888D01*
X67993000Y-36549888D02*
X67334000Y-36549888D01*
X65254000Y-36229888D02*
X64290000Y-36229888D01*
X68736000Y-35429888D02*
X67334000Y-35429888D01*
X68518000Y-35909888D02*
X67334000Y-35909888D01*
X65254000Y-36829888D02*
X64975000Y-36829888D01*
X67794000Y-36709888D02*
X67334000Y-36709888D01*
X68830000Y-35068888D02*
X67334000Y-35068888D01*
X68562000Y-35829888D02*
X67334000Y-35829888D01*
X68785000Y-35268888D02*
X67334000Y-35268888D01*
X68469000Y-35989888D02*
X67334000Y-35989888D01*
X65254000Y-35108888D02*
X63766000Y-35108888D01*
X67613000Y-36829888D02*
X67334000Y-36829888D01*
X68774000Y-35309888D02*
X67334000Y-35309888D01*
X68844000Y-34988888D02*
X67334000Y-34988888D01*
X68859000Y-34868888D02*
X67334000Y-34868888D01*
X65254000Y-36589888D02*
X64641000Y-36589888D01*
X65254000Y-36189888D02*
X64259000Y-36189888D01*
X65254000Y-36349888D02*
X64393000Y-36349888D01*
X65254000Y-36469888D02*
X64509000Y-36469888D01*
X68659000Y-35629888D02*
X67334000Y-35629888D01*
X68870000Y-34748888D02*
X63718000Y-34748888D01*
X65254000Y-35509888D02*
X63880000Y-35509888D01*
X67848000Y-36669888D02*
X67334000Y-36669888D01*
X68749000Y-35389888D02*
X67334000Y-35389888D01*
X68494000Y-35949888D02*
X67334000Y-35949888D01*
X67392000Y-36949888D02*
X65196000Y-36949888D01*
X67209000Y-37029888D02*
X65379000Y-37029888D01*
X68604000Y-35749888D02*
X67334000Y-35749888D01*
X65254000Y-35228888D02*
X63793000Y-35228888D01*
X68037000Y-36509888D02*
X67334000Y-36509888D01*
X65254000Y-35789888D02*
X64004000Y-35789888D01*
X68359000Y-36149888D02*
X67334000Y-36149888D01*
X68837000Y-35028888D02*
X67334000Y-35028888D01*
X65254000Y-35829888D02*
X64026000Y-35829888D01*
X66578000Y-37189888D02*
X66010000Y-37189888D01*
X65254000Y-35188888D02*
X63783000Y-35188888D01*
X68863000Y-34828888D02*
X67334000Y-34828888D01*
X65254000Y-35469888D02*
X63866000Y-35469888D01*
X65254000Y-35909888D02*
X64070000Y-35909888D01*
X68389000Y-36109888D02*
X67334000Y-36109888D01*
X65254000Y-35068888D02*
X63758000Y-35068888D01*
X65254000Y-36629888D02*
X64689000Y-36629888D01*
X65254000Y-35749888D02*
X63984000Y-35749888D01*
X67769000Y-31784113D02*
X67769000Y-32284113D01*
X65254000Y-35949888D02*
X64094000Y-35949888D01*
X65254000Y-34868888D02*
X63729000Y-34868888D01*
X67947000Y-36589888D02*
X67334000Y-36589888D01*
X67545000Y-36869888D02*
X67334000Y-36869888D01*
X67899000Y-36629888D02*
X67334000Y-36629888D01*
X65254000Y-36149888D02*
X64229000Y-36149888D01*
X68642000Y-35669888D02*
X67334000Y-35669888D01*
X65254000Y-35309888D02*
X63814000Y-35309888D01*
X68855000Y-34908888D02*
X67334000Y-34908888D01*
X68814000Y-35148888D02*
X67334000Y-35148888D01*
X65254000Y-36749888D02*
X64851000Y-36749888D01*
X65254000Y-36429888D02*
X64468000Y-36429888D01*
X65254000Y-35709888D02*
X63965000Y-35709888D01*
X65254000Y-36709888D02*
X64794000Y-36709888D01*
X65254000Y-36029888D02*
X64145000Y-36029888D01*
X65254000Y-35669888D02*
X63946000Y-35669888D01*
X65254000Y-35629888D02*
X63929000Y-35629888D01*
X68019000Y-32034113D02*
X67519000Y-32034113D01*
X68722000Y-35469888D02*
X67334000Y-35469888D01*
X68541000Y-35869888D02*
X67334000Y-35869888D01*
X68874000Y-34588888D02*
X63714000Y-34588888D01*
X68120000Y-36429888D02*
X67334000Y-36429888D01*
X65254000Y-34988888D02*
X63744000Y-34988888D01*
X65254000Y-35028888D02*
X63751000Y-35028888D01*
X65254000Y-36389888D02*
X64430000Y-36389888D01*
X68329000Y-36189888D02*
X67334000Y-36189888D01*
X68416000Y-36069888D02*
X67334000Y-36069888D01*
X68158000Y-36389888D02*
X67334000Y-36389888D01*
X68195000Y-36349888D02*
X67334000Y-36349888D01*
X65254000Y-35549888D02*
X63896000Y-35549888D01*
X67737000Y-36749888D02*
X67334000Y-36749888D01*
X68850000Y-34948888D02*
X67334000Y-34948888D01*
X65254000Y-34828888D02*
X63725000Y-34828888D01*
X65254000Y-36789888D02*
X64911000Y-36789888D01*
X65254000Y-34948888D02*
X63738000Y-34948888D01*
X65254000Y-36509888D02*
X64551000Y-36509888D01*
X65254000Y-35148888D02*
X63774000Y-35148888D01*
X68874000Y-34628888D02*
X63714000Y-34628888D01*
X68231000Y-36309888D02*
X67334000Y-36309888D01*
X65254000Y-35869888D02*
X64047000Y-35869888D01*
X65254000Y-36309888D02*
X64357000Y-36309888D01*
X65254000Y-35268888D02*
X63803000Y-35268888D01*
X68676000Y-35589888D02*
X67334000Y-35589888D01*
X65254000Y-35989888D02*
X64119000Y-35989888D01*
X68873000Y-34668888D02*
X63715000Y-34668888D01*
X68914000Y-34588888D02*
G75*
G03*
X68914000Y-34588888I-2620000J0D01*
G01*
%TO.C,R9*%
X63500000Y-53999000D02*
X63500000Y-54769000D01*
X63500000Y-62079000D02*
X63500000Y-61309000D01*
X62130000Y-54769000D02*
X62130000Y-61309000D01*
X62130000Y-61309000D02*
X64870000Y-61309000D01*
X64870000Y-54769000D02*
X62130000Y-54769000D01*
X64870000Y-61309000D02*
X64870000Y-54769000D01*
%TO.C,J9*%
X81915000Y-45025000D02*
X99755000Y-45025000D01*
X81915000Y-47685000D02*
X99755000Y-47685000D01*
X81915000Y-47685000D02*
X81915000Y-45025000D01*
X79315000Y-45025000D02*
X80645000Y-45025000D01*
X99755000Y-47685000D02*
X99755000Y-45025000D01*
X79315000Y-46355000D02*
X79315000Y-45025000D01*
%TO.C,J4*%
X188318000Y-28702000D02*
X188318000Y-30032000D01*
X188318000Y-30032000D02*
X186988000Y-30032000D01*
X183118000Y-27372000D02*
X183118000Y-30032000D01*
X185718000Y-27372000D02*
X185718000Y-30032000D01*
X185718000Y-27372000D02*
X183118000Y-27372000D01*
X185718000Y-30032000D02*
X183118000Y-30032000D01*
%TO.C,R3*%
X95797500Y-72961500D02*
X95027500Y-72961500D01*
X95027500Y-74331500D02*
X95027500Y-71591500D01*
X88487500Y-74331500D02*
X95027500Y-74331500D01*
X87717500Y-72961500D02*
X88487500Y-72961500D01*
X88487500Y-71591500D02*
X88487500Y-74331500D01*
X95027500Y-71591500D02*
X88487500Y-71591500D01*
%TO.C,U1*%
X39214000Y-54659000D02*
X47834000Y-54659000D01*
X47834000Y-54659000D02*
X47834000Y-42938000D01*
X39214000Y-42938000D02*
X47834000Y-42938000D01*
X39214000Y-54659000D02*
X39214000Y-42938000D01*
X46834000Y-54899000D02*
X48074000Y-54899000D01*
X48074000Y-54899000D02*
X48074000Y-53659000D01*
%TO.C,J3*%
X188318000Y-93659000D02*
X186988000Y-93659000D01*
X185718000Y-90999000D02*
X185718000Y-93659000D01*
X185718000Y-93659000D02*
X183118000Y-93659000D01*
X185718000Y-90999000D02*
X183118000Y-90999000D01*
X188318000Y-92329000D02*
X188318000Y-93659000D01*
X183118000Y-90999000D02*
X183118000Y-93659000D01*
%TO.C,C3*%
X58415000Y-59150000D02*
X56393000Y-59150000D01*
X58081000Y-59270000D02*
X56727000Y-59270000D01*
X56364000Y-58790000D02*
X55799000Y-58790000D01*
X59579000Y-58150000D02*
X58444000Y-58150000D01*
X56364000Y-58830000D02*
X55850000Y-58830000D01*
X56364000Y-59030000D02*
X56153000Y-59030000D01*
X59932000Y-57269000D02*
X58444000Y-57269000D01*
X59977000Y-56949000D02*
X54831000Y-56949000D01*
X59057000Y-58750000D02*
X58444000Y-58750000D01*
X59305000Y-58510000D02*
X58444000Y-58510000D01*
X59786000Y-57750000D02*
X58444000Y-57750000D01*
X59526000Y-58230000D02*
X58444000Y-58230000D01*
X59983000Y-56829000D02*
X54825000Y-56829000D01*
X58319000Y-59190000D02*
X56489000Y-59190000D01*
X59846000Y-57590000D02*
X58444000Y-57590000D01*
X59973000Y-56989000D02*
X58444000Y-56989000D01*
X58847000Y-58910000D02*
X58444000Y-58910000D01*
X56364000Y-58470000D02*
X55467000Y-58470000D01*
X59189000Y-58630000D02*
X58444000Y-58630000D01*
X59672000Y-57990000D02*
X58444000Y-57990000D01*
X56364000Y-57870000D02*
X55075000Y-57870000D01*
X59714000Y-57910000D02*
X58444000Y-57910000D01*
X56364000Y-57109000D02*
X54848000Y-57109000D01*
X56364000Y-57349000D02*
X54893000Y-57349000D01*
X56364000Y-58270000D02*
X55309000Y-58270000D01*
X59980000Y-56909000D02*
X54828000Y-56909000D01*
X57922000Y-59310000D02*
X56886000Y-59310000D01*
X59872000Y-57510000D02*
X58444000Y-57510000D01*
X56364000Y-57630000D02*
X54976000Y-57630000D01*
X56364000Y-58590000D02*
X55578000Y-58590000D01*
X59752000Y-57830000D02*
X58444000Y-57830000D01*
X59769000Y-57790000D02*
X58444000Y-57790000D01*
X56364000Y-57710000D02*
X55006000Y-57710000D01*
X56364000Y-58030000D02*
X55157000Y-58030000D01*
X56364000Y-57590000D02*
X54962000Y-57590000D01*
X58879000Y-53944225D02*
X58879000Y-54444225D01*
X56364000Y-57790000D02*
X55039000Y-57790000D01*
X58787000Y-58950000D02*
X58444000Y-58950000D01*
X56364000Y-57269000D02*
X54876000Y-57269000D01*
X59940000Y-57229000D02*
X58444000Y-57229000D01*
X58209000Y-59230000D02*
X56599000Y-59230000D01*
X59733000Y-57870000D02*
X58444000Y-57870000D01*
X59628000Y-58070000D02*
X58444000Y-58070000D01*
X56364000Y-58630000D02*
X55619000Y-58630000D01*
X56364000Y-57670000D02*
X54990000Y-57670000D01*
X58655000Y-59030000D02*
X58444000Y-59030000D01*
X56364000Y-58150000D02*
X55229000Y-58150000D01*
X56364000Y-57389000D02*
X54903000Y-57389000D01*
X56364000Y-57189000D02*
X54861000Y-57189000D01*
X56364000Y-57470000D02*
X54924000Y-57470000D01*
X56364000Y-58510000D02*
X55503000Y-58510000D01*
X59268000Y-58550000D02*
X58444000Y-58550000D01*
X56364000Y-57309000D02*
X54884000Y-57309000D01*
X59954000Y-57149000D02*
X58444000Y-57149000D01*
X59651000Y-58030000D02*
X58444000Y-58030000D01*
X56364000Y-58550000D02*
X55540000Y-58550000D01*
X56364000Y-58110000D02*
X55204000Y-58110000D01*
X59499000Y-58270000D02*
X58444000Y-58270000D01*
X56364000Y-57910000D02*
X55094000Y-57910000D01*
X59103000Y-58710000D02*
X58444000Y-58710000D01*
X56364000Y-57830000D02*
X55056000Y-57830000D01*
X59984000Y-56789000D02*
X54824000Y-56789000D01*
X58958000Y-58830000D02*
X58444000Y-58830000D01*
X59924000Y-57309000D02*
X58444000Y-57309000D01*
X59969000Y-57029000D02*
X58444000Y-57029000D01*
X58582000Y-59070000D02*
X56226000Y-59070000D01*
X59965000Y-57069000D02*
X58444000Y-57069000D01*
X59230000Y-58590000D02*
X58444000Y-58590000D01*
X56364000Y-58990000D02*
X56085000Y-58990000D01*
X56364000Y-58230000D02*
X55282000Y-58230000D01*
X59408000Y-58390000D02*
X58444000Y-58390000D01*
X59694000Y-57950000D02*
X58444000Y-57950000D01*
X59341000Y-58470000D02*
X58444000Y-58470000D01*
X56364000Y-57750000D02*
X55022000Y-57750000D01*
X59905000Y-57389000D02*
X58444000Y-57389000D01*
X56364000Y-57029000D02*
X54839000Y-57029000D01*
X56364000Y-58430000D02*
X55433000Y-58430000D01*
X56364000Y-57950000D02*
X55114000Y-57950000D01*
X56364000Y-58190000D02*
X55255000Y-58190000D01*
X59802000Y-57710000D02*
X58444000Y-57710000D01*
X58723000Y-58990000D02*
X58444000Y-58990000D01*
X59895000Y-57429000D02*
X58444000Y-57429000D01*
X59984000Y-56749000D02*
X54824000Y-56749000D01*
X56364000Y-58910000D02*
X55961000Y-58910000D01*
X56364000Y-58870000D02*
X55904000Y-58870000D01*
X56364000Y-58070000D02*
X55180000Y-58070000D01*
X56364000Y-57990000D02*
X55136000Y-57990000D01*
X56364000Y-57510000D02*
X54936000Y-57510000D01*
X58904000Y-58870000D02*
X58444000Y-58870000D01*
X56364000Y-58670000D02*
X55661000Y-58670000D01*
X56364000Y-58710000D02*
X55705000Y-58710000D01*
X59915000Y-57349000D02*
X58444000Y-57349000D01*
X59818000Y-57670000D02*
X58444000Y-57670000D01*
X59982000Y-56869000D02*
X54826000Y-56869000D01*
X56364000Y-58350000D02*
X55369000Y-58350000D01*
X56364000Y-56989000D02*
X54835000Y-56989000D01*
X59009000Y-58790000D02*
X58444000Y-58790000D01*
X59832000Y-57630000D02*
X58444000Y-57630000D01*
X56364000Y-57429000D02*
X54913000Y-57429000D01*
X56364000Y-57229000D02*
X54868000Y-57229000D01*
X56364000Y-57069000D02*
X54843000Y-57069000D01*
X59604000Y-58110000D02*
X58444000Y-58110000D01*
X59553000Y-58190000D02*
X58444000Y-58190000D01*
X59469000Y-58310000D02*
X58444000Y-58310000D01*
X56364000Y-57149000D02*
X54854000Y-57149000D01*
X56364000Y-58750000D02*
X55751000Y-58750000D01*
X59147000Y-58670000D02*
X58444000Y-58670000D01*
X59439000Y-58350000D02*
X58444000Y-58350000D01*
X56364000Y-58310000D02*
X55339000Y-58310000D01*
X59947000Y-57189000D02*
X58444000Y-57189000D01*
X56364000Y-58390000D02*
X55400000Y-58390000D01*
X56364000Y-57550000D02*
X54949000Y-57550000D01*
X59129000Y-54194225D02*
X58629000Y-54194225D01*
X57688000Y-59350000D02*
X57120000Y-59350000D01*
X59884000Y-57470000D02*
X58444000Y-57470000D01*
X59859000Y-57550000D02*
X58444000Y-57550000D01*
X59960000Y-57109000D02*
X58444000Y-57109000D01*
X59375000Y-58430000D02*
X58444000Y-58430000D01*
X58502000Y-59110000D02*
X56306000Y-59110000D01*
X56364000Y-58950000D02*
X56021000Y-58950000D01*
X60024000Y-56749000D02*
G75*
G03*
X60024000Y-56749000I-2620000J0D01*
G01*
%TO.C,C4*%
X47908388Y-60803000D02*
X47908388Y-62319000D01*
X50029388Y-58958000D02*
X50029388Y-60568000D01*
X49309388Y-60803000D02*
X49309388Y-61664000D01*
X48949388Y-57588000D02*
X48949388Y-58723000D01*
X49469388Y-58020000D02*
X49469388Y-58723000D01*
X47668388Y-57185000D02*
X47668388Y-62341000D01*
X49629388Y-58209000D02*
X49629388Y-58723000D01*
X47788388Y-57194000D02*
X47788388Y-58723000D01*
X48188388Y-57262000D02*
X48188388Y-58723000D01*
X49429388Y-60803000D02*
X49429388Y-61548000D01*
X49869388Y-58585000D02*
X49869388Y-60941000D01*
X49109388Y-60803000D02*
X49109388Y-61828000D01*
X47628388Y-57184000D02*
X47628388Y-62342000D01*
X49549388Y-60803000D02*
X49549388Y-61416000D01*
X49989388Y-58848000D02*
X49989388Y-60678000D01*
X48389388Y-57321000D02*
X48389388Y-58723000D01*
X49749388Y-58380000D02*
X49749388Y-58723000D01*
X48429388Y-60803000D02*
X48429388Y-62191000D01*
X48068388Y-57235000D02*
X48068388Y-58723000D01*
X48028388Y-57227000D02*
X48028388Y-58723000D01*
X48148388Y-57252000D02*
X48148388Y-58723000D01*
X48829388Y-60803000D02*
X48829388Y-62010000D01*
X48429388Y-57335000D02*
X48429388Y-58723000D01*
X49589388Y-60803000D02*
X49589388Y-61368000D01*
X49349388Y-60803000D02*
X49349388Y-61627000D01*
X48709388Y-60803000D02*
X48709388Y-62073000D01*
X49549388Y-58110000D02*
X49549388Y-58723000D01*
X49789388Y-58444000D02*
X49789388Y-58723000D01*
X49069388Y-57668000D02*
X49069388Y-58723000D01*
X49149388Y-57728000D02*
X49149388Y-58723000D01*
X48389388Y-60803000D02*
X48389388Y-62205000D01*
X48509388Y-60803000D02*
X48509388Y-62161000D01*
X48549388Y-60803000D02*
X48549388Y-62145000D01*
X48108388Y-60803000D02*
X48108388Y-62283000D01*
X49229388Y-60803000D02*
X49229388Y-61734000D01*
X49669388Y-58263000D02*
X49669388Y-58723000D01*
X49509388Y-58064000D02*
X49509388Y-58723000D01*
X50069388Y-59086000D02*
X50069388Y-60440000D01*
X48709388Y-57453000D02*
X48709388Y-58723000D01*
X49629388Y-60803000D02*
X49629388Y-61317000D01*
X49069388Y-60803000D02*
X49069388Y-61858000D01*
X48869388Y-60803000D02*
X48869388Y-61987000D01*
X47828388Y-60803000D02*
X47828388Y-62328000D01*
X48028388Y-60803000D02*
X48028388Y-62299000D01*
X49389388Y-60803000D02*
X49389388Y-61589000D01*
X50149388Y-59479000D02*
X50149388Y-60047000D01*
X49909388Y-58665000D02*
X49909388Y-60861000D01*
X49309388Y-57862000D02*
X49309388Y-58723000D01*
X48228388Y-57272000D02*
X48228388Y-58723000D01*
X48869388Y-57539000D02*
X48869388Y-58723000D01*
X49189388Y-60803000D02*
X49189388Y-61767000D01*
X48629388Y-57415000D02*
X48629388Y-58723000D01*
X48949388Y-60803000D02*
X48949388Y-61938000D01*
X47948388Y-60803000D02*
X47948388Y-62313000D01*
X49829388Y-60803000D02*
X49829388Y-61014000D01*
X49469388Y-60803000D02*
X49469388Y-61506000D01*
X47748388Y-57190000D02*
X47748388Y-62336000D01*
X48789388Y-60803000D02*
X48789388Y-62031000D01*
X48269388Y-57283000D02*
X48269388Y-58723000D01*
X44993613Y-58038000D02*
X44993613Y-58538000D01*
X48749388Y-57473000D02*
X48749388Y-58723000D01*
X49589388Y-58158000D02*
X49589388Y-58723000D01*
X47988388Y-60803000D02*
X47988388Y-62306000D01*
X48789388Y-57495000D02*
X48789388Y-58723000D01*
X48589388Y-60803000D02*
X48589388Y-62128000D01*
X48309388Y-60803000D02*
X48309388Y-62231000D01*
X48349388Y-60803000D02*
X48349388Y-62218000D01*
X49269388Y-57826000D02*
X49269388Y-58723000D01*
X47868388Y-57202000D02*
X47868388Y-58723000D01*
X48469388Y-60803000D02*
X48469388Y-62177000D01*
X49389388Y-57937000D02*
X49389388Y-58723000D01*
X49229388Y-57792000D02*
X49229388Y-58723000D01*
X48549388Y-57381000D02*
X48549388Y-58723000D01*
X48269388Y-60803000D02*
X48269388Y-62243000D01*
X48629388Y-60803000D02*
X48629388Y-62111000D01*
X49189388Y-57759000D02*
X49189388Y-58723000D01*
X48589388Y-57398000D02*
X48589388Y-58723000D01*
X49749388Y-60803000D02*
X49749388Y-61146000D01*
X48989388Y-60803000D02*
X48989388Y-61912000D01*
X44743613Y-58288000D02*
X45243613Y-58288000D01*
X48148388Y-60803000D02*
X48148388Y-62274000D01*
X47548388Y-57183000D02*
X47548388Y-62343000D01*
X47788388Y-60803000D02*
X47788388Y-62332000D01*
X48749388Y-60803000D02*
X48749388Y-62053000D01*
X48309388Y-57295000D02*
X48309388Y-58723000D01*
X47948388Y-57213000D02*
X47948388Y-58723000D01*
X48349388Y-57308000D02*
X48349388Y-58723000D01*
X47988388Y-57220000D02*
X47988388Y-58723000D01*
X49829388Y-58512000D02*
X49829388Y-58723000D01*
X49789388Y-60803000D02*
X49789388Y-61082000D01*
X49429388Y-57978000D02*
X49429388Y-58723000D01*
X47868388Y-60803000D02*
X47868388Y-62324000D01*
X48989388Y-57614000D02*
X48989388Y-58723000D01*
X48669388Y-60803000D02*
X48669388Y-62092000D01*
X48909388Y-57563000D02*
X48909388Y-58723000D01*
X49349388Y-57899000D02*
X49349388Y-58723000D01*
X48188388Y-60803000D02*
X48188388Y-62264000D01*
X48228388Y-60803000D02*
X48228388Y-62254000D01*
X48068388Y-60803000D02*
X48068388Y-62291000D01*
X49269388Y-60803000D02*
X49269388Y-61700000D01*
X49029388Y-60803000D02*
X49029388Y-61885000D01*
X48909388Y-60803000D02*
X48909388Y-61963000D01*
X50109388Y-59245000D02*
X50109388Y-60281000D01*
X49949388Y-58752000D02*
X49949388Y-60774000D01*
X48469388Y-57349000D02*
X48469388Y-58723000D01*
X48829388Y-57516000D02*
X48829388Y-58723000D01*
X49149388Y-60803000D02*
X49149388Y-61798000D01*
X47588388Y-57183000D02*
X47588388Y-62343000D01*
X49109388Y-57698000D02*
X49109388Y-58723000D01*
X49709388Y-58320000D02*
X49709388Y-58723000D01*
X47828388Y-57198000D02*
X47828388Y-58723000D01*
X47908388Y-57207000D02*
X47908388Y-58723000D01*
X48108388Y-57243000D02*
X48108388Y-58723000D01*
X47708388Y-57187000D02*
X47708388Y-62339000D01*
X48509388Y-57365000D02*
X48509388Y-58723000D01*
X49029388Y-57641000D02*
X49029388Y-58723000D01*
X49509388Y-60803000D02*
X49509388Y-61462000D01*
X49669388Y-60803000D02*
X49669388Y-61263000D01*
X49709388Y-60803000D02*
X49709388Y-61206000D01*
X48669388Y-57434000D02*
X48669388Y-58723000D01*
X50168388Y-59763000D02*
G75*
G03*
X50168388Y-59763000I-2620000J0D01*
G01*
%TO.C,R4*%
X95154500Y-77814500D02*
X88614500Y-77814500D01*
X87844500Y-79184500D02*
X88614500Y-79184500D01*
X95924500Y-79184500D02*
X95154500Y-79184500D01*
X88614500Y-77814500D02*
X88614500Y-80554500D01*
X88614500Y-80554500D02*
X95154500Y-80554500D01*
X95154500Y-80554500D02*
X95154500Y-77814500D01*
%TO.C,R8*%
X59976000Y-27332000D02*
X59976000Y-30072000D01*
X59976000Y-30072000D02*
X66516000Y-30072000D01*
X66516000Y-27332000D02*
X59976000Y-27332000D01*
X66516000Y-30072000D02*
X66516000Y-27332000D01*
X59206000Y-28702000D02*
X59976000Y-28702000D01*
X67286000Y-28702000D02*
X66516000Y-28702000D01*
%TO.C,J15*%
X57277000Y-32706000D02*
X52137000Y-32706000D01*
X59877000Y-32706000D02*
X59877000Y-34036000D01*
X58547000Y-32706000D02*
X59877000Y-32706000D01*
X57277000Y-32706000D02*
X57277000Y-35366000D01*
X57277000Y-35366000D02*
X52137000Y-35366000D01*
X52137000Y-32706000D02*
X52137000Y-35366000D01*
%TO.C,J14*%
X81963500Y-77846300D02*
X81963500Y-79176300D01*
X79363500Y-80506300D02*
X76763500Y-80506300D01*
X79363500Y-77846300D02*
X79363500Y-80506300D01*
X80633500Y-77846300D02*
X81963500Y-77846300D01*
X79363500Y-77846300D02*
X76763500Y-77846300D01*
X76763500Y-77846300D02*
X76763500Y-80506300D01*
%TO.C,J13*%
X81714500Y-71750300D02*
X81714500Y-73080300D01*
X79114500Y-71750300D02*
X76514500Y-71750300D01*
X76514500Y-71750300D02*
X76514500Y-74410300D01*
X79114500Y-71750300D02*
X79114500Y-74410300D01*
X79114500Y-74410300D02*
X76514500Y-74410300D01*
X80384500Y-71750300D02*
X81714500Y-71750300D01*
%TD*%
M02*
