%TF.GenerationSoftware,KiCad,Pcbnew,6.0.2+dfsg-1*%
%TF.CreationDate,2023-04-17T17:18:00+02:00*%
%TF.ProjectId,TransportPlatform_PCB,5472616e-7370-46f7-9274-506c6174666f,rev?*%
%TF.SameCoordinates,Original*%
%TF.FileFunction,AssemblyDrawing,Top*%
%FSLAX46Y46*%
G04 Gerber Fmt 4.6, Leading zero omitted, Abs format (unit mm)*
G04 Created by KiCad (PCBNEW 6.0.2+dfsg-1) date 2023-04-17 17:18:00*
%MOMM*%
%LPD*%
G01*
G04 APERTURE LIST*
%ADD10C,0.150000*%
%ADD11C,0.100000*%
G04 APERTURE END LIST*
D10*
%TO.C,R5*%
X120356333Y-39949380D02*
X120023000Y-39473190D01*
X119784904Y-39949380D02*
X119784904Y-38949380D01*
X120165857Y-38949380D01*
X120261095Y-38997000D01*
X120308714Y-39044619D01*
X120356333Y-39139857D01*
X120356333Y-39282714D01*
X120308714Y-39377952D01*
X120261095Y-39425571D01*
X120165857Y-39473190D01*
X119784904Y-39473190D01*
X121261095Y-38949380D02*
X120784904Y-38949380D01*
X120737285Y-39425571D01*
X120784904Y-39377952D01*
X120880142Y-39330333D01*
X121118238Y-39330333D01*
X121213476Y-39377952D01*
X121261095Y-39425571D01*
X121308714Y-39520809D01*
X121308714Y-39758904D01*
X121261095Y-39854142D01*
X121213476Y-39901761D01*
X121118238Y-39949380D01*
X120880142Y-39949380D01*
X120784904Y-39901761D01*
X120737285Y-39854142D01*
%TO.C,R2*%
X120483333Y-45537380D02*
X120150000Y-45061190D01*
X119911904Y-45537380D02*
X119911904Y-44537380D01*
X120292857Y-44537380D01*
X120388095Y-44585000D01*
X120435714Y-44632619D01*
X120483333Y-44727857D01*
X120483333Y-44870714D01*
X120435714Y-44965952D01*
X120388095Y-45013571D01*
X120292857Y-45061190D01*
X119911904Y-45061190D01*
X120864285Y-44632619D02*
X120911904Y-44585000D01*
X121007142Y-44537380D01*
X121245238Y-44537380D01*
X121340476Y-44585000D01*
X121388095Y-44632619D01*
X121435714Y-44727857D01*
X121435714Y-44823095D01*
X121388095Y-44965952D01*
X120816666Y-45537380D01*
X121435714Y-45537380D01*
%TO.C,J8*%
X89201666Y-58807380D02*
X89201666Y-59521666D01*
X89154047Y-59664523D01*
X89058809Y-59759761D01*
X88915952Y-59807380D01*
X88820714Y-59807380D01*
X89820714Y-59235952D02*
X89725476Y-59188333D01*
X89677857Y-59140714D01*
X89630238Y-59045476D01*
X89630238Y-58997857D01*
X89677857Y-58902619D01*
X89725476Y-58855000D01*
X89820714Y-58807380D01*
X90011190Y-58807380D01*
X90106428Y-58855000D01*
X90154047Y-58902619D01*
X90201666Y-58997857D01*
X90201666Y-59045476D01*
X90154047Y-59140714D01*
X90106428Y-59188333D01*
X90011190Y-59235952D01*
X89820714Y-59235952D01*
X89725476Y-59283571D01*
X89677857Y-59331190D01*
X89630238Y-59426428D01*
X89630238Y-59616904D01*
X89677857Y-59712142D01*
X89725476Y-59759761D01*
X89820714Y-59807380D01*
X90011190Y-59807380D01*
X90106428Y-59759761D01*
X90154047Y-59712142D01*
X90201666Y-59616904D01*
X90201666Y-59426428D01*
X90154047Y-59331190D01*
X90106428Y-59283571D01*
X90011190Y-59235952D01*
%TO.C,J10*%
X89497476Y-32320380D02*
X89497476Y-33034666D01*
X89449857Y-33177523D01*
X89354619Y-33272761D01*
X89211761Y-33320380D01*
X89116523Y-33320380D01*
X90497476Y-33320380D02*
X89926047Y-33320380D01*
X90211761Y-33320380D02*
X90211761Y-32320380D01*
X90116523Y-32463238D01*
X90021285Y-32558476D01*
X89926047Y-32606095D01*
X91116523Y-32320380D02*
X91211761Y-32320380D01*
X91307000Y-32368000D01*
X91354619Y-32415619D01*
X91402238Y-32510857D01*
X91449857Y-32701333D01*
X91449857Y-32939428D01*
X91402238Y-33129904D01*
X91354619Y-33225142D01*
X91307000Y-33272761D01*
X91211761Y-33320380D01*
X91116523Y-33320380D01*
X91021285Y-33272761D01*
X90973666Y-33225142D01*
X90926047Y-33129904D01*
X90878428Y-32939428D01*
X90878428Y-32701333D01*
X90926047Y-32510857D01*
X90973666Y-32415619D01*
X91021285Y-32368000D01*
X91116523Y-32320380D01*
%TO.C,H4*%
X43688095Y-89352380D02*
X43688095Y-88352380D01*
X43688095Y-88828571D02*
X44259523Y-88828571D01*
X44259523Y-89352380D02*
X44259523Y-88352380D01*
X45164285Y-88685714D02*
X45164285Y-89352380D01*
X44926190Y-88304761D02*
X44688095Y-89019047D01*
X45307142Y-89019047D01*
%TO.C,C5*%
X53433142Y-48832553D02*
X53480761Y-48880172D01*
X53528380Y-49023029D01*
X53528380Y-49118267D01*
X53480761Y-49261125D01*
X53385523Y-49356363D01*
X53290285Y-49403982D01*
X53099809Y-49451601D01*
X52956952Y-49451601D01*
X52766476Y-49403982D01*
X52671238Y-49356363D01*
X52576000Y-49261125D01*
X52528380Y-49118267D01*
X52528380Y-49023029D01*
X52576000Y-48880172D01*
X52623619Y-48832553D01*
X52528380Y-47927791D02*
X52528380Y-48403982D01*
X53004571Y-48451601D01*
X52956952Y-48403982D01*
X52909333Y-48308744D01*
X52909333Y-48070648D01*
X52956952Y-47975410D01*
X53004571Y-47927791D01*
X53099809Y-47880172D01*
X53337904Y-47880172D01*
X53433142Y-47927791D01*
X53480761Y-47975410D01*
X53528380Y-48070648D01*
X53528380Y-48308744D01*
X53480761Y-48403982D01*
X53433142Y-48451601D01*
%TO.C,JP1*%
X98639380Y-35118333D02*
X99353666Y-35118333D01*
X99496523Y-35165952D01*
X99591761Y-35261190D01*
X99639380Y-35404047D01*
X99639380Y-35499285D01*
X99639380Y-34642142D02*
X98639380Y-34642142D01*
X98639380Y-34261190D01*
X98687000Y-34165952D01*
X98734619Y-34118333D01*
X98829857Y-34070714D01*
X98972714Y-34070714D01*
X99067952Y-34118333D01*
X99115571Y-34165952D01*
X99163190Y-34261190D01*
X99163190Y-34642142D01*
X99639380Y-33118333D02*
X99639380Y-33689761D01*
X99639380Y-33404047D02*
X98639380Y-33404047D01*
X98782238Y-33499285D01*
X98877476Y-33594523D01*
X98925095Y-33689761D01*
%TO.C,H3*%
X199009095Y-89352380D02*
X199009095Y-88352380D01*
X199009095Y-88828571D02*
X199580523Y-88828571D01*
X199580523Y-89352380D02*
X199580523Y-88352380D01*
X199961476Y-88352380D02*
X200580523Y-88352380D01*
X200247190Y-88733333D01*
X200390047Y-88733333D01*
X200485285Y-88780952D01*
X200532904Y-88828571D01*
X200580523Y-88923809D01*
X200580523Y-89161904D01*
X200532904Y-89257142D01*
X200485285Y-89304761D01*
X200390047Y-89352380D01*
X200104333Y-89352380D01*
X200009095Y-89304761D01*
X199961476Y-89257142D01*
%TO.C,J11*%
X88979476Y-66508380D02*
X88979476Y-67222666D01*
X88931857Y-67365523D01*
X88836619Y-67460761D01*
X88693761Y-67508380D01*
X88598523Y-67508380D01*
X89979476Y-67508380D02*
X89408047Y-67508380D01*
X89693761Y-67508380D02*
X89693761Y-66508380D01*
X89598523Y-66651238D01*
X89503285Y-66746476D01*
X89408047Y-66794095D01*
X90931857Y-67508380D02*
X90360428Y-67508380D01*
X90646142Y-67508380D02*
X90646142Y-66508380D01*
X90550904Y-66651238D01*
X90455666Y-66746476D01*
X90360428Y-66794095D01*
%TO.C,C1*%
X81002142Y-34157779D02*
X81049761Y-34205398D01*
X81097380Y-34348255D01*
X81097380Y-34443493D01*
X81049761Y-34586351D01*
X80954523Y-34681589D01*
X80859285Y-34729208D01*
X80668809Y-34776827D01*
X80525952Y-34776827D01*
X80335476Y-34729208D01*
X80240238Y-34681589D01*
X80145000Y-34586351D01*
X80097380Y-34443493D01*
X80097380Y-34348255D01*
X80145000Y-34205398D01*
X80192619Y-34157779D01*
X81097380Y-33205398D02*
X81097380Y-33776827D01*
X81097380Y-33491113D02*
X80097380Y-33491113D01*
X80240238Y-33586351D01*
X80335476Y-33681589D01*
X80383095Y-33776827D01*
%TO.C,H1*%
X43561095Y-31313380D02*
X43561095Y-30313380D01*
X43561095Y-30789571D02*
X44132523Y-30789571D01*
X44132523Y-31313380D02*
X44132523Y-30313380D01*
X45132523Y-31313380D02*
X44561095Y-31313380D01*
X44846809Y-31313380D02*
X44846809Y-30313380D01*
X44751571Y-30456238D01*
X44656333Y-30551476D01*
X44561095Y-30599095D01*
%TO.C,J18*%
X95598476Y-89876380D02*
X95598476Y-90590666D01*
X95550857Y-90733523D01*
X95455619Y-90828761D01*
X95312761Y-90876380D01*
X95217523Y-90876380D01*
X96598476Y-90876380D02*
X96027047Y-90876380D01*
X96312761Y-90876380D02*
X96312761Y-89876380D01*
X96217523Y-90019238D01*
X96122285Y-90114476D01*
X96027047Y-90162095D01*
X97169904Y-90304952D02*
X97074666Y-90257333D01*
X97027047Y-90209714D01*
X96979428Y-90114476D01*
X96979428Y-90066857D01*
X97027047Y-89971619D01*
X97074666Y-89924000D01*
X97169904Y-89876380D01*
X97360380Y-89876380D01*
X97455619Y-89924000D01*
X97503238Y-89971619D01*
X97550857Y-90066857D01*
X97550857Y-90114476D01*
X97503238Y-90209714D01*
X97455619Y-90257333D01*
X97360380Y-90304952D01*
X97169904Y-90304952D01*
X97074666Y-90352571D01*
X97027047Y-90400190D01*
X96979428Y-90495428D01*
X96979428Y-90685904D01*
X97027047Y-90781142D01*
X97074666Y-90828761D01*
X97169904Y-90876380D01*
X97360380Y-90876380D01*
X97455619Y-90828761D01*
X97503238Y-90781142D01*
X97550857Y-90685904D01*
X97550857Y-90495428D01*
X97503238Y-90400190D01*
X97455619Y-90352571D01*
X97360380Y-90304952D01*
%TO.C,J16*%
X68540380Y-57593523D02*
X69254666Y-57593523D01*
X69397523Y-57641142D01*
X69492761Y-57736380D01*
X69540380Y-57879238D01*
X69540380Y-57974476D01*
X69540380Y-56593523D02*
X69540380Y-57164952D01*
X69540380Y-56879238D02*
X68540380Y-56879238D01*
X68683238Y-56974476D01*
X68778476Y-57069714D01*
X68826095Y-57164952D01*
X68540380Y-55736380D02*
X68540380Y-55926857D01*
X68588000Y-56022095D01*
X68635619Y-56069714D01*
X68778476Y-56164952D01*
X68968952Y-56212571D01*
X69349904Y-56212571D01*
X69445142Y-56164952D01*
X69492761Y-56117333D01*
X69540380Y-56022095D01*
X69540380Y-55831619D01*
X69492761Y-55736380D01*
X69445142Y-55688761D01*
X69349904Y-55641142D01*
X69111809Y-55641142D01*
X69016571Y-55688761D01*
X68968952Y-55736380D01*
X68921333Y-55831619D01*
X68921333Y-56022095D01*
X68968952Y-56117333D01*
X69016571Y-56164952D01*
X69111809Y-56212571D01*
%TO.C,R1*%
X47656904Y-41287619D02*
X47704523Y-41240000D01*
X47799761Y-41192380D01*
X48037857Y-41192380D01*
X48133095Y-41240000D01*
X48180714Y-41287619D01*
X48228333Y-41382857D01*
X48228333Y-41478095D01*
X48180714Y-41620952D01*
X47609285Y-42192380D01*
X48228333Y-42192380D01*
X48609285Y-41287619D02*
X48656904Y-41240000D01*
X48752142Y-41192380D01*
X48990238Y-41192380D01*
X49085476Y-41240000D01*
X49133095Y-41287619D01*
X49180714Y-41382857D01*
X49180714Y-41478095D01*
X49133095Y-41620952D01*
X48561666Y-42192380D01*
X49180714Y-42192380D01*
X49799761Y-41192380D02*
X49895000Y-41192380D01*
X49990238Y-41240000D01*
X50037857Y-41287619D01*
X50085476Y-41382857D01*
X50133095Y-41573333D01*
X50133095Y-41811428D01*
X50085476Y-42001904D01*
X50037857Y-42097142D01*
X49990238Y-42144761D01*
X49895000Y-42192380D01*
X49799761Y-42192380D01*
X49704523Y-42144761D01*
X49656904Y-42097142D01*
X49609285Y-42001904D01*
X49561666Y-41811428D01*
X49561666Y-41573333D01*
X49609285Y-41382857D01*
X49656904Y-41287619D01*
X49704523Y-41240000D01*
X49799761Y-41192380D01*
X48728333Y-39822380D02*
X48395000Y-39346190D01*
X48156904Y-39822380D02*
X48156904Y-38822380D01*
X48537857Y-38822380D01*
X48633095Y-38870000D01*
X48680714Y-38917619D01*
X48728333Y-39012857D01*
X48728333Y-39155714D01*
X48680714Y-39250952D01*
X48633095Y-39298571D01*
X48537857Y-39346190D01*
X48156904Y-39346190D01*
X49680714Y-39822380D02*
X49109285Y-39822380D01*
X49395000Y-39822380D02*
X49395000Y-38822380D01*
X49299761Y-38965238D01*
X49204523Y-39060476D01*
X49109285Y-39108095D01*
%TO.C,C2*%
X66651142Y-34755554D02*
X66698761Y-34803173D01*
X66746380Y-34946030D01*
X66746380Y-35041268D01*
X66698761Y-35184126D01*
X66603523Y-35279364D01*
X66508285Y-35326983D01*
X66317809Y-35374602D01*
X66174952Y-35374602D01*
X65984476Y-35326983D01*
X65889238Y-35279364D01*
X65794000Y-35184126D01*
X65746380Y-35041268D01*
X65746380Y-34946030D01*
X65794000Y-34803173D01*
X65841619Y-34755554D01*
X65841619Y-34374602D02*
X65794000Y-34326983D01*
X65746380Y-34231745D01*
X65746380Y-33993649D01*
X65794000Y-33898411D01*
X65841619Y-33850792D01*
X65936857Y-33803173D01*
X66032095Y-33803173D01*
X66174952Y-33850792D01*
X66746380Y-34422221D01*
X66746380Y-33803173D01*
%TO.C,R9*%
X63952380Y-58205666D02*
X63476190Y-58539000D01*
X63952380Y-58777095D02*
X62952380Y-58777095D01*
X62952380Y-58396142D01*
X63000000Y-58300904D01*
X63047619Y-58253285D01*
X63142857Y-58205666D01*
X63285714Y-58205666D01*
X63380952Y-58253285D01*
X63428571Y-58300904D01*
X63476190Y-58396142D01*
X63476190Y-58777095D01*
X63952380Y-57729476D02*
X63952380Y-57539000D01*
X63904761Y-57443761D01*
X63857142Y-57396142D01*
X63714285Y-57300904D01*
X63523809Y-57253285D01*
X63142857Y-57253285D01*
X63047619Y-57300904D01*
X63000000Y-57348523D01*
X62952380Y-57443761D01*
X62952380Y-57634238D01*
X63000000Y-57729476D01*
X63047619Y-57777095D01*
X63142857Y-57824714D01*
X63380952Y-57824714D01*
X63476190Y-57777095D01*
X63523809Y-57729476D01*
X63571428Y-57634238D01*
X63571428Y-57443761D01*
X63523809Y-57348523D01*
X63476190Y-57300904D01*
X63380952Y-57253285D01*
%TO.C,J4*%
X185384666Y-28154380D02*
X185384666Y-28868666D01*
X185337047Y-29011523D01*
X185241809Y-29106761D01*
X185098952Y-29154380D01*
X185003714Y-29154380D01*
X186289428Y-28487714D02*
X186289428Y-29154380D01*
X186051333Y-28106761D02*
X185813238Y-28821047D01*
X186432285Y-28821047D01*
%TO.C,H2*%
X198882095Y-31059380D02*
X198882095Y-30059380D01*
X198882095Y-30535571D02*
X199453523Y-30535571D01*
X199453523Y-31059380D02*
X199453523Y-30059380D01*
X199882095Y-30154619D02*
X199929714Y-30107000D01*
X200024952Y-30059380D01*
X200263047Y-30059380D01*
X200358285Y-30107000D01*
X200405904Y-30154619D01*
X200453523Y-30249857D01*
X200453523Y-30345095D01*
X200405904Y-30487952D01*
X199834476Y-31059380D01*
X200453523Y-31059380D01*
%TO.C,R3*%
X91590833Y-73413880D02*
X91257500Y-72937690D01*
X91019404Y-73413880D02*
X91019404Y-72413880D01*
X91400357Y-72413880D01*
X91495595Y-72461500D01*
X91543214Y-72509119D01*
X91590833Y-72604357D01*
X91590833Y-72747214D01*
X91543214Y-72842452D01*
X91495595Y-72890071D01*
X91400357Y-72937690D01*
X91019404Y-72937690D01*
X91924166Y-72413880D02*
X92543214Y-72413880D01*
X92209880Y-72794833D01*
X92352738Y-72794833D01*
X92447976Y-72842452D01*
X92495595Y-72890071D01*
X92543214Y-72985309D01*
X92543214Y-73223404D01*
X92495595Y-73318642D01*
X92447976Y-73366261D01*
X92352738Y-73413880D01*
X92067023Y-73413880D01*
X91971785Y-73366261D01*
X91924166Y-73318642D01*
%TO.C,U1*%
X42976380Y-49509904D02*
X43785904Y-49509904D01*
X43881142Y-49462285D01*
X43928761Y-49414666D01*
X43976380Y-49319428D01*
X43976380Y-49128952D01*
X43928761Y-49033714D01*
X43881142Y-48986095D01*
X43785904Y-48938476D01*
X42976380Y-48938476D01*
X43976380Y-47938476D02*
X43976380Y-48509904D01*
X43976380Y-48224190D02*
X42976380Y-48224190D01*
X43119238Y-48319428D01*
X43214476Y-48414666D01*
X43262095Y-48509904D01*
%TO.C,J3*%
X185384666Y-91781380D02*
X185384666Y-92495666D01*
X185337047Y-92638523D01*
X185241809Y-92733761D01*
X185098952Y-92781380D01*
X185003714Y-92781380D01*
X185765619Y-91781380D02*
X186384666Y-91781380D01*
X186051333Y-92162333D01*
X186194190Y-92162333D01*
X186289428Y-92209952D01*
X186337047Y-92257571D01*
X186384666Y-92352809D01*
X186384666Y-92590904D01*
X186337047Y-92686142D01*
X186289428Y-92733761D01*
X186194190Y-92781380D01*
X185908476Y-92781380D01*
X185813238Y-92733761D01*
X185765619Y-92686142D01*
%TO.C,C3*%
X56872142Y-57042666D02*
X56919761Y-57090285D01*
X56967380Y-57233142D01*
X56967380Y-57328380D01*
X56919761Y-57471238D01*
X56824523Y-57566476D01*
X56729285Y-57614095D01*
X56538809Y-57661714D01*
X56395952Y-57661714D01*
X56205476Y-57614095D01*
X56110238Y-57566476D01*
X56015000Y-57471238D01*
X55967380Y-57328380D01*
X55967380Y-57233142D01*
X56015000Y-57090285D01*
X56062619Y-57042666D01*
X55967380Y-56709333D02*
X55967380Y-56090285D01*
X56348333Y-56423619D01*
X56348333Y-56280761D01*
X56395952Y-56185523D01*
X56443571Y-56137904D01*
X56538809Y-56090285D01*
X56776904Y-56090285D01*
X56872142Y-56137904D01*
X56919761Y-56185523D01*
X56967380Y-56280761D01*
X56967380Y-56566476D01*
X56919761Y-56661714D01*
X56872142Y-56709333D01*
%TO.C,C4*%
X47381721Y-60120142D02*
X47334102Y-60167761D01*
X47191245Y-60215380D01*
X47096007Y-60215380D01*
X46953149Y-60167761D01*
X46857911Y-60072523D01*
X46810292Y-59977285D01*
X46762673Y-59786809D01*
X46762673Y-59643952D01*
X46810292Y-59453476D01*
X46857911Y-59358238D01*
X46953149Y-59263000D01*
X47096007Y-59215380D01*
X47191245Y-59215380D01*
X47334102Y-59263000D01*
X47381721Y-59310619D01*
X48238864Y-59548714D02*
X48238864Y-60215380D01*
X48000768Y-59167761D02*
X47762673Y-59882047D01*
X48381721Y-59882047D01*
%TO.C,R4*%
X91717833Y-79636880D02*
X91384500Y-79160690D01*
X91146404Y-79636880D02*
X91146404Y-78636880D01*
X91527357Y-78636880D01*
X91622595Y-78684500D01*
X91670214Y-78732119D01*
X91717833Y-78827357D01*
X91717833Y-78970214D01*
X91670214Y-79065452D01*
X91622595Y-79113071D01*
X91527357Y-79160690D01*
X91146404Y-79160690D01*
X92574976Y-78970214D02*
X92574976Y-79636880D01*
X92336880Y-78589261D02*
X92098785Y-79303547D01*
X92717833Y-79303547D01*
%TO.C,R8*%
X63079333Y-29154380D02*
X62746000Y-28678190D01*
X62507904Y-29154380D02*
X62507904Y-28154380D01*
X62888857Y-28154380D01*
X62984095Y-28202000D01*
X63031714Y-28249619D01*
X63079333Y-28344857D01*
X63079333Y-28487714D01*
X63031714Y-28582952D01*
X62984095Y-28630571D01*
X62888857Y-28678190D01*
X62507904Y-28678190D01*
X63650761Y-28582952D02*
X63555523Y-28535333D01*
X63507904Y-28487714D01*
X63460285Y-28392476D01*
X63460285Y-28344857D01*
X63507904Y-28249619D01*
X63555523Y-28202000D01*
X63650761Y-28154380D01*
X63841238Y-28154380D01*
X63936476Y-28202000D01*
X63984095Y-28249619D01*
X64031714Y-28344857D01*
X64031714Y-28392476D01*
X63984095Y-28487714D01*
X63936476Y-28535333D01*
X63841238Y-28582952D01*
X63650761Y-28582952D01*
X63555523Y-28630571D01*
X63507904Y-28678190D01*
X63460285Y-28773428D01*
X63460285Y-28963904D01*
X63507904Y-29059142D01*
X63555523Y-29106761D01*
X63650761Y-29154380D01*
X63841238Y-29154380D01*
X63936476Y-29106761D01*
X63984095Y-29059142D01*
X64031714Y-28963904D01*
X64031714Y-28773428D01*
X63984095Y-28678190D01*
X63936476Y-28630571D01*
X63841238Y-28582952D01*
%TO.C,J15*%
X55197476Y-33488380D02*
X55197476Y-34202666D01*
X55149857Y-34345523D01*
X55054619Y-34440761D01*
X54911761Y-34488380D01*
X54816523Y-34488380D01*
X56197476Y-34488380D02*
X55626047Y-34488380D01*
X55911761Y-34488380D02*
X55911761Y-33488380D01*
X55816523Y-33631238D01*
X55721285Y-33726476D01*
X55626047Y-33774095D01*
X57102238Y-33488380D02*
X56626047Y-33488380D01*
X56578428Y-33964571D01*
X56626047Y-33916952D01*
X56721285Y-33869333D01*
X56959380Y-33869333D01*
X57054619Y-33916952D01*
X57102238Y-33964571D01*
X57149857Y-34059809D01*
X57149857Y-34297904D01*
X57102238Y-34393142D01*
X57054619Y-34440761D01*
X56959380Y-34488380D01*
X56721285Y-34488380D01*
X56626047Y-34440761D01*
X56578428Y-34393142D01*
%TO.C,J14*%
X78553976Y-78628680D02*
X78553976Y-79342966D01*
X78506357Y-79485823D01*
X78411119Y-79581061D01*
X78268261Y-79628680D01*
X78173023Y-79628680D01*
X79553976Y-79628680D02*
X78982547Y-79628680D01*
X79268261Y-79628680D02*
X79268261Y-78628680D01*
X79173023Y-78771538D01*
X79077785Y-78866776D01*
X78982547Y-78914395D01*
X80411119Y-78962014D02*
X80411119Y-79628680D01*
X80173023Y-78581061D02*
X79934928Y-79295347D01*
X80553976Y-79295347D01*
%TO.C,J13*%
X78566880Y-73889823D02*
X79281166Y-73889823D01*
X79424023Y-73937442D01*
X79519261Y-74032680D01*
X79566880Y-74175538D01*
X79566880Y-74270776D01*
X79566880Y-72889823D02*
X79566880Y-73461252D01*
X79566880Y-73175538D02*
X78566880Y-73175538D01*
X78709738Y-73270776D01*
X78804976Y-73366014D01*
X78852595Y-73461252D01*
X78566880Y-72556490D02*
X78566880Y-71937442D01*
X78947833Y-72270776D01*
X78947833Y-72127919D01*
X78995452Y-72032680D01*
X79043071Y-71985061D01*
X79138309Y-71937442D01*
X79376404Y-71937442D01*
X79471642Y-71985061D01*
X79519261Y-72032680D01*
X79566880Y-72127919D01*
X79566880Y-72413633D01*
X79519261Y-72508871D01*
X79471642Y-72556490D01*
D11*
%TO.C,R5*%
X115443000Y-39497000D02*
X117373000Y-39497000D01*
X123673000Y-40747000D02*
X123673000Y-38247000D01*
X123673000Y-38247000D02*
X117373000Y-38247000D01*
X117373000Y-38247000D02*
X117373000Y-40747000D01*
X125603000Y-39497000D02*
X123673000Y-39497000D01*
X117373000Y-40747000D02*
X123673000Y-40747000D01*
%TO.C,R2*%
X117500000Y-43835000D02*
X117500000Y-46335000D01*
X125730000Y-45085000D02*
X123800000Y-45085000D01*
X123800000Y-46335000D02*
X123800000Y-43835000D01*
X117500000Y-46335000D02*
X123800000Y-46335000D01*
X123800000Y-43835000D02*
X117500000Y-43835000D01*
X115570000Y-45085000D02*
X117500000Y-45085000D01*
%TO.C,J8*%
X99695000Y-58085000D02*
X99695000Y-60625000D01*
X79375000Y-58720000D02*
X80010000Y-58085000D01*
X99695000Y-60625000D02*
X79375000Y-60625000D01*
X80010000Y-58085000D02*
X99695000Y-58085000D01*
X79375000Y-60625000D02*
X79375000Y-58720000D01*
%TO.C,J10*%
X85227000Y-32233000D02*
X85862000Y-31598000D01*
X85227000Y-34138000D02*
X85227000Y-32233000D01*
X95387000Y-34138000D02*
X85227000Y-34138000D01*
X85862000Y-31598000D02*
X95387000Y-31598000D01*
X95387000Y-31598000D02*
X95387000Y-34138000D01*
%TO.C,C5*%
X54413500Y-46782282D02*
X53913500Y-46782282D01*
X54163500Y-46532282D02*
X54163500Y-47032282D01*
X55576000Y-48665887D02*
G75*
G03*
X55576000Y-48665887I-2500000J0D01*
G01*
%TO.C,JP1*%
X97917000Y-32380000D02*
X98552000Y-31745000D01*
X98552000Y-31745000D02*
X100457000Y-31745000D01*
X97917000Y-36825000D02*
X97917000Y-32380000D01*
X100457000Y-36825000D02*
X97917000Y-36825000D01*
X100457000Y-31745000D02*
X100457000Y-36825000D01*
%TO.C,J11*%
X84709000Y-67691000D02*
X84709000Y-65786000D01*
X85344000Y-68326000D02*
X84709000Y-67691000D01*
X84709000Y-65786000D02*
X94869000Y-65786000D01*
X94869000Y-65786000D02*
X94869000Y-68326000D01*
X94869000Y-68326000D02*
X85344000Y-68326000D01*
%TO.C,C1*%
X79557500Y-36124718D02*
X79557500Y-35624718D01*
X79307500Y-35874718D02*
X79807500Y-35874718D01*
X83145000Y-33991113D02*
G75*
G03*
X83145000Y-33991113I-2500000J0D01*
G01*
%TO.C,J18*%
X100218000Y-91694000D02*
X93233000Y-91694000D01*
X93233000Y-91694000D02*
X92598000Y-91059000D01*
X92598000Y-91059000D02*
X92598000Y-89154000D01*
X92598000Y-89154000D02*
X100218000Y-89154000D01*
X100218000Y-89154000D02*
X100218000Y-91694000D01*
%TO.C,J16*%
X70358000Y-52974000D02*
X70358000Y-60594000D01*
X68453000Y-52974000D02*
X70358000Y-52974000D01*
X70358000Y-60594000D02*
X67818000Y-60594000D01*
X67818000Y-60594000D02*
X67818000Y-53609000D01*
X67818000Y-53609000D02*
X68453000Y-52974000D01*
%TO.C,R1*%
X52045000Y-40620000D02*
X52045000Y-38120000D01*
X45745000Y-38120000D02*
X45745000Y-40620000D01*
X53975000Y-39370000D02*
X52045000Y-39370000D01*
X52045000Y-38120000D02*
X45745000Y-38120000D01*
X45745000Y-40620000D02*
X52045000Y-40620000D01*
X43815000Y-39370000D02*
X45745000Y-39370000D01*
%TO.C,C2*%
X67631500Y-32705283D02*
X67131500Y-32705283D01*
X67381500Y-32455283D02*
X67381500Y-32955283D01*
X68794000Y-34588888D02*
G75*
G03*
X68794000Y-34588888I-2500000J0D01*
G01*
%TO.C,R9*%
X64750000Y-61189000D02*
X64750000Y-54889000D01*
X63500000Y-52959000D02*
X63500000Y-54889000D01*
X62250000Y-61189000D02*
X64750000Y-61189000D01*
X64750000Y-54889000D02*
X62250000Y-54889000D01*
X62250000Y-54889000D02*
X62250000Y-61189000D01*
X63500000Y-63119000D02*
X63500000Y-61189000D01*
%TO.C,J9*%
X99695000Y-45085000D02*
X99695000Y-47625000D01*
X80010000Y-45085000D02*
X99695000Y-45085000D01*
X99695000Y-47625000D02*
X79375000Y-47625000D01*
X79375000Y-47625000D02*
X79375000Y-45720000D01*
X79375000Y-45720000D02*
X80010000Y-45085000D01*
%TO.C,J4*%
X187623000Y-29972000D02*
X183178000Y-29972000D01*
X188258000Y-29337000D02*
X187623000Y-29972000D01*
X183178000Y-29972000D02*
X183178000Y-27432000D01*
X183178000Y-27432000D02*
X188258000Y-27432000D01*
X188258000Y-27432000D02*
X188258000Y-29337000D01*
%TO.C,R3*%
X94907500Y-71711500D02*
X88607500Y-71711500D01*
X88607500Y-74211500D02*
X94907500Y-74211500D01*
X86677500Y-72961500D02*
X88607500Y-72961500D01*
X88607500Y-71711500D02*
X88607500Y-74211500D01*
X96837500Y-72961500D02*
X94907500Y-72961500D01*
X94907500Y-74211500D02*
X94907500Y-71711500D01*
%TO.C,U1*%
X47774000Y-42998000D02*
X47774000Y-53598000D01*
X47774000Y-53598000D02*
X46774000Y-54598000D01*
X39274000Y-42998000D02*
X47774000Y-42998000D01*
X46774000Y-54598000D02*
X39274000Y-54598000D01*
X39274000Y-54598000D02*
X39274000Y-42998000D01*
%TO.C,J3*%
X188258000Y-91059000D02*
X188258000Y-92964000D01*
X183178000Y-93599000D02*
X183178000Y-91059000D01*
X188258000Y-92964000D02*
X187623000Y-93599000D01*
X187623000Y-93599000D02*
X183178000Y-93599000D01*
X183178000Y-91059000D02*
X188258000Y-91059000D01*
%TO.C,C3*%
X58491500Y-54615395D02*
X58491500Y-55115395D01*
X58741500Y-54865395D02*
X58241500Y-54865395D01*
X59904000Y-56749000D02*
G75*
G03*
X59904000Y-56749000I-2500000J0D01*
G01*
%TO.C,C4*%
X45664783Y-58425500D02*
X45664783Y-58925500D01*
X45414783Y-58675500D02*
X45914783Y-58675500D01*
X50048388Y-59763000D02*
G75*
G03*
X50048388Y-59763000I-2500000J0D01*
G01*
%TO.C,R4*%
X88734500Y-80434500D02*
X95034500Y-80434500D01*
X95034500Y-77934500D02*
X88734500Y-77934500D01*
X95034500Y-80434500D02*
X95034500Y-77934500D01*
X88734500Y-77934500D02*
X88734500Y-80434500D01*
X86804500Y-79184500D02*
X88734500Y-79184500D01*
X96964500Y-79184500D02*
X95034500Y-79184500D01*
%TO.C,R8*%
X60096000Y-27452000D02*
X60096000Y-29952000D01*
X68326000Y-28702000D02*
X66396000Y-28702000D01*
X58166000Y-28702000D02*
X60096000Y-28702000D01*
X60096000Y-29952000D02*
X66396000Y-29952000D01*
X66396000Y-29952000D02*
X66396000Y-27452000D01*
X66396000Y-27452000D02*
X60096000Y-27452000D01*
%TO.C,J15*%
X52197000Y-32766000D02*
X59182000Y-32766000D01*
X59817000Y-35306000D02*
X52197000Y-35306000D01*
X59182000Y-32766000D02*
X59817000Y-33401000D01*
X52197000Y-35306000D02*
X52197000Y-32766000D01*
X59817000Y-33401000D02*
X59817000Y-35306000D01*
%TO.C,J14*%
X81903500Y-80446300D02*
X76823500Y-80446300D01*
X81903500Y-78541300D02*
X81903500Y-80446300D01*
X81268500Y-77906300D02*
X81903500Y-78541300D01*
X76823500Y-80446300D02*
X76823500Y-77906300D01*
X76823500Y-77906300D02*
X81268500Y-77906300D01*
%TO.C,J13*%
X76574500Y-71810300D02*
X81019500Y-71810300D01*
X81654500Y-74350300D02*
X76574500Y-74350300D01*
X81654500Y-72445300D02*
X81654500Y-74350300D01*
X76574500Y-74350300D02*
X76574500Y-71810300D01*
X81019500Y-71810300D02*
X81654500Y-72445300D01*
%TD*%
M02*
