%TF.GenerationSoftware,KiCad,Pcbnew,6.0.2+dfsg-1*%
%TF.CreationDate,2023-04-17T17:17:59+02:00*%
%TF.ProjectId,TransportPlatform_PCB,5472616e-7370-46f7-9274-506c6174666f,rev?*%
%TF.SameCoordinates,Original*%
%TF.FileFunction,Other,User*%
%FSLAX46Y46*%
G04 Gerber Fmt 4.6, Leading zero omitted, Abs format (unit mm)*
G04 Created by KiCad (PCBNEW 6.0.2+dfsg-1) date 2023-04-17 17:17:59*
%MOMM*%
%LPD*%
G01*
G04 APERTURE LIST*
%ADD10C,0.050000*%
G04 APERTURE END LIST*
D10*
%TO.C,R5*%
X114393000Y-37997000D02*
X114393000Y-40997000D01*
X126653000Y-37997000D02*
X114393000Y-37997000D01*
X114393000Y-40997000D02*
X126653000Y-40997000D01*
X126653000Y-40997000D02*
X126653000Y-37997000D01*
%TO.C,R2*%
X114520000Y-43585000D02*
X114520000Y-46585000D01*
X126780000Y-43585000D02*
X114520000Y-43585000D01*
X126780000Y-46585000D02*
X126780000Y-43585000D01*
X114520000Y-46585000D02*
X126780000Y-46585000D01*
%TO.C,J17*%
X53594000Y-83570000D02*
X68834000Y-83570000D01*
X68834000Y-83570000D02*
X68834000Y-96730000D01*
X68834000Y-96730000D02*
X53594000Y-96730000D01*
X53594000Y-96730000D02*
X53594000Y-83570000D01*
%TO.C,J8*%
X78845000Y-57605000D02*
X100195000Y-57605000D01*
X78845000Y-61155000D02*
X78845000Y-57605000D01*
X100195000Y-57605000D02*
X100195000Y-61155000D01*
X100195000Y-61155000D02*
X78845000Y-61155000D01*
%TO.C,J10*%
X95897000Y-34668000D02*
X84697000Y-34668000D01*
X84697000Y-34668000D02*
X84697000Y-31118000D01*
X84697000Y-31118000D02*
X95897000Y-31118000D01*
X95897000Y-31118000D02*
X95897000Y-34668000D01*
%TO.C,H4*%
X47200000Y-88900000D02*
G75*
G03*
X47200000Y-88900000I-2750000J0D01*
G01*
%TO.C,C5*%
X55826000Y-48665887D02*
G75*
G03*
X55826000Y-48665887I-2750000J0D01*
G01*
%TO.C,JP1*%
X100987000Y-31215000D02*
X97387000Y-31215000D01*
X100987000Y-37365000D02*
X100987000Y-31215000D01*
X97387000Y-31215000D02*
X97387000Y-37365000D01*
X97387000Y-37365000D02*
X100987000Y-37365000D01*
%TO.C,H3*%
X202521000Y-88900000D02*
G75*
G03*
X202521000Y-88900000I-2750000J0D01*
G01*
%TO.C,J11*%
X95379000Y-68856000D02*
X95379000Y-65256000D01*
X84179000Y-68856000D02*
X95379000Y-68856000D01*
X84179000Y-65256000D02*
X84179000Y-68856000D01*
X95379000Y-65256000D02*
X84179000Y-65256000D01*
%TO.C,C1*%
X83395000Y-33991113D02*
G75*
G03*
X83395000Y-33991113I-2750000J0D01*
G01*
%TO.C,H1*%
X47073000Y-30861000D02*
G75*
G03*
X47073000Y-30861000I-2750000J0D01*
G01*
%TO.C,F1*%
X40632000Y-69402000D02*
X72632000Y-69402000D01*
X72632000Y-69402000D02*
X72632000Y-79402000D01*
X72632000Y-79402000D02*
X40632000Y-79402000D01*
X40632000Y-79402000D02*
X40632000Y-69402000D01*
%TO.C,J18*%
X92068000Y-92224000D02*
X100718000Y-92224000D01*
X100718000Y-92224000D02*
X100718000Y-88624000D01*
X100718000Y-88624000D02*
X92068000Y-88624000D01*
X92068000Y-88624000D02*
X92068000Y-92224000D01*
%TO.C,D1*%
X56900900Y-44784900D02*
X60100900Y-44784900D01*
X60100900Y-44784900D02*
X60100900Y-38784900D01*
X60100900Y-38784900D02*
X56900900Y-38784900D01*
X56900900Y-38784900D02*
X56900900Y-44784900D01*
X60447100Y-38019100D02*
X60447100Y-38019100D01*
X60447100Y-38019100D02*
X60447100Y-38019100D01*
X60447100Y-38019100D02*
X60447100Y-38019100D01*
X60447100Y-38019100D02*
X60447100Y-38019100D01*
%TO.C,J16*%
X70888000Y-61094000D02*
X70888000Y-52444000D01*
X67288000Y-61094000D02*
X70888000Y-61094000D01*
X70888000Y-52444000D02*
X67288000Y-52444000D01*
X67288000Y-52444000D02*
X67288000Y-61094000D01*
%TO.C,R1*%
X42765000Y-40870000D02*
X55025000Y-40870000D01*
X55025000Y-37870000D02*
X42765000Y-37870000D01*
X55025000Y-40870000D02*
X55025000Y-37870000D01*
X42765000Y-37870000D02*
X42765000Y-40870000D01*
%TO.C,C2*%
X69044000Y-34588888D02*
G75*
G03*
X69044000Y-34588888I-2750000J0D01*
G01*
%TO.C,R9*%
X65000000Y-51909000D02*
X62000000Y-51909000D01*
X65000000Y-64169000D02*
X65000000Y-51909000D01*
X62000000Y-51909000D02*
X62000000Y-64169000D01*
X62000000Y-64169000D02*
X65000000Y-64169000D01*
%TO.C,J9*%
X100195000Y-48155000D02*
X78845000Y-48155000D01*
X78845000Y-44605000D02*
X100195000Y-44605000D01*
X78845000Y-48155000D02*
X78845000Y-44605000D01*
X100195000Y-44605000D02*
X100195000Y-48155000D01*
%TO.C,J4*%
X182688000Y-26902000D02*
X188788000Y-26902000D01*
X188788000Y-30452000D02*
X182688000Y-30452000D01*
X182688000Y-30452000D02*
X182688000Y-26902000D01*
X188788000Y-26902000D02*
X188788000Y-30452000D01*
%TO.C,H2*%
X202394000Y-30607000D02*
G75*
G03*
X202394000Y-30607000I-2750000J0D01*
G01*
%TO.C,R3*%
X97887500Y-74461500D02*
X97887500Y-71461500D01*
X85627500Y-71461500D02*
X85627500Y-74461500D01*
X85627500Y-74461500D02*
X97887500Y-74461500D01*
X97887500Y-71461500D02*
X85627500Y-71461500D01*
%TO.C,U1*%
X39024000Y-42748000D02*
X39024000Y-54858000D01*
X39024000Y-54858000D02*
X48024000Y-54858000D01*
X48024000Y-42748000D02*
X39024000Y-42748000D01*
X48024000Y-54858000D02*
X48024000Y-42748000D01*
%TO.C,J3*%
X182688000Y-90529000D02*
X188788000Y-90529000D01*
X188788000Y-90529000D02*
X188788000Y-94079000D01*
X182688000Y-94079000D02*
X182688000Y-90529000D01*
X188788000Y-94079000D02*
X182688000Y-94079000D01*
%TO.C,C3*%
X60154000Y-56749000D02*
G75*
G03*
X60154000Y-56749000I-2750000J0D01*
G01*
%TO.C,C4*%
X50298388Y-59763000D02*
G75*
G03*
X50298388Y-59763000I-2750000J0D01*
G01*
%TO.C,R4*%
X98014500Y-77684500D02*
X85754500Y-77684500D01*
X85754500Y-80684500D02*
X98014500Y-80684500D01*
X98014500Y-80684500D02*
X98014500Y-77684500D01*
X85754500Y-77684500D02*
X85754500Y-80684500D01*
%TO.C,R8*%
X69376000Y-27202000D02*
X57116000Y-27202000D01*
X57116000Y-30202000D02*
X69376000Y-30202000D01*
X57116000Y-27202000D02*
X57116000Y-30202000D01*
X69376000Y-30202000D02*
X69376000Y-27202000D01*
%TO.C,J15*%
X51697000Y-35836000D02*
X60347000Y-35836000D01*
X60347000Y-35836000D02*
X60347000Y-32236000D01*
X60347000Y-32236000D02*
X51697000Y-32236000D01*
X51697000Y-32236000D02*
X51697000Y-35836000D01*
%TO.C,J14*%
X82433500Y-80976300D02*
X82433500Y-77376300D01*
X82433500Y-77376300D02*
X76283500Y-77376300D01*
X76283500Y-77376300D02*
X76283500Y-80976300D01*
X76283500Y-80976300D02*
X82433500Y-80976300D01*
%TO.C,J13*%
X76034500Y-74880300D02*
X82184500Y-74880300D01*
X76034500Y-71280300D02*
X76034500Y-74880300D01*
X82184500Y-71280300D02*
X76034500Y-71280300D01*
X82184500Y-74880300D02*
X82184500Y-71280300D01*
%TD*%
M02*
