%TF.GenerationSoftware,KiCad,Pcbnew,6.0.2+dfsg-1*%
%TF.CreationDate,2023-04-17T16:54:49+02:00*%
%TF.ProjectId,vl53l0x_conn_PCB,766c3533-6c30-4785-9f63-6f6e6e5f5043,rev?*%
%TF.SameCoordinates,Original*%
%TF.FileFunction,Copper,L2,Bot*%
%TF.FilePolarity,Positive*%
%FSLAX46Y46*%
G04 Gerber Fmt 4.6, Leading zero omitted, Abs format (unit mm)*
G04 Created by KiCad (PCBNEW 6.0.2+dfsg-1) date 2023-04-17 16:54:49*
%MOMM*%
%LPD*%
G01*
G04 APERTURE LIST*
%TA.AperFunction,ComponentPad*%
%ADD10C,2.500000*%
%TD*%
%TA.AperFunction,ComponentPad*%
%ADD11C,3.800000*%
%TD*%
%TA.AperFunction,ViaPad*%
%ADD12C,1.500000*%
%TD*%
%TA.AperFunction,Conductor*%
%ADD13C,0.500000*%
%TD*%
G04 APERTURE END LIST*
D10*
%TO.P,J1,1,Pin_1*%
%TO.N,/XSHUT*%
X68961000Y-31943000D03*
%TO.P,J1,2,Pin_2*%
%TO.N,/SDA*%
X68961000Y-36943000D03*
%TO.P,J1,3,Pin_3*%
%TO.N,/SCL*%
X68961000Y-41943000D03*
%TO.P,J1,4,Pin_4*%
%TO.N,/GND*%
X68961000Y-46943000D03*
%TO.P,J1,5,Pin_5*%
%TO.N,/VCC*%
X68961000Y-51943000D03*
%TD*%
D11*
%TO.P,H3,3*%
%TO.N,N/C*%
X30734000Y-58547000D03*
%TD*%
D10*
%TO.P,J3,1,Pin_1*%
%TO.N,/VCC*%
X30988000Y-36751000D03*
%TO.P,J3,2,Pin_2*%
%TO.N,/GND*%
X30988000Y-41751000D03*
%TO.P,J3,3,Pin_3*%
%TO.N,/SCL*%
X30988000Y-46751000D03*
%TO.P,J3,4,Pin_4*%
%TO.N,/SDA*%
X30988000Y-51751000D03*
%TD*%
D11*
%TO.P,H4,2*%
%TO.N,N/C*%
X69088000Y-25146000D03*
%TD*%
%TO.P,H1,1*%
%TO.N,N/C*%
X30480000Y-25400000D03*
%TD*%
%TO.P,H2,4*%
%TO.N,N/C*%
X69469000Y-59055000D03*
%TD*%
D10*
%TO.P,J2,1,Pin_1*%
%TO.N,/VCC*%
X39545000Y-24892000D03*
%TO.P,J2,2,Pin_2*%
%TO.N,/GND*%
X44545000Y-24892000D03*
%TO.P,J2,3,Pin_3*%
%TO.N,/SCL*%
X49545000Y-24892000D03*
%TO.P,J2,4,Pin_4*%
%TO.N,/SDA*%
X54545000Y-24892000D03*
%TO.P,J2,5,Pin_5*%
%TO.N,/XSHUT*%
X59545000Y-24892000D03*
%TD*%
D12*
%TO.N,/VCC*%
X39497000Y-36576000D03*
X50165000Y-48006000D03*
%TO.N,/SDA*%
X57277000Y-35560000D03*
X51435000Y-41275000D03*
%TD*%
D13*
%TO.N,/VCC*%
X39497000Y-36576000D02*
X39322000Y-36751000D01*
X39322000Y-36751000D02*
X30988000Y-36751000D01*
X39497000Y-36576000D02*
X39545000Y-36528000D01*
X39545000Y-36528000D02*
X39545000Y-24892000D01*
X54102000Y-51943000D02*
X50165000Y-48006000D01*
X68961000Y-51943000D02*
X54102000Y-51943000D01*
%TO.N,/XSHUT*%
X66596000Y-31943000D02*
X59545000Y-24892000D01*
X68961000Y-31943000D02*
X66596000Y-31943000D01*
%TO.N,/SDA*%
X57277000Y-35560000D02*
X60134500Y-32702500D01*
X60134500Y-32702500D02*
X60515500Y-32702500D01*
X54545000Y-26732000D02*
X60515500Y-32702500D01*
X40959000Y-51751000D02*
X51435000Y-41275000D01*
X30988000Y-51751000D02*
X40959000Y-51751000D01*
X64756000Y-36943000D02*
X68961000Y-36943000D01*
X60515500Y-32702500D02*
X64756000Y-36943000D01*
X54545000Y-24892000D02*
X54545000Y-26732000D01*
%TO.N,/SCL*%
X68961000Y-41943000D02*
X57691000Y-41943000D01*
X49545000Y-33797000D02*
X36591000Y-46751000D01*
X57691000Y-41943000D02*
X57531000Y-41783000D01*
X49545000Y-33797000D02*
X49545000Y-24892000D01*
X36591000Y-46751000D02*
X30988000Y-46751000D01*
X57531000Y-41783000D02*
X49545000Y-33797000D01*
%TD*%
%TA.AperFunction,Conductor*%
%TO.N,/GND*%
G36*
X72967121Y-21229002D02*
G01*
X73013614Y-21282658D01*
X73025000Y-21335000D01*
X73025000Y-62104000D01*
X73004998Y-62172121D01*
X72951342Y-62218614D01*
X72899000Y-62230000D01*
X26796000Y-62230000D01*
X26727879Y-62209998D01*
X26681386Y-62156342D01*
X26670000Y-62104000D01*
X26670000Y-58547000D01*
X28320738Y-58547000D01*
X28339767Y-58849462D01*
X28396555Y-59147154D01*
X28490206Y-59435381D01*
X28619242Y-59709598D01*
X28781630Y-59965480D01*
X28974808Y-60198992D01*
X29195729Y-60406450D01*
X29440910Y-60584584D01*
X29706483Y-60730585D01*
X29710152Y-60732038D01*
X29710157Y-60732040D01*
X29984591Y-60840696D01*
X29988261Y-60842149D01*
X30281800Y-60917516D01*
X30582470Y-60955500D01*
X30885530Y-60955500D01*
X31186200Y-60917516D01*
X31479739Y-60842149D01*
X31483409Y-60840696D01*
X31757843Y-60732040D01*
X31757848Y-60732038D01*
X31761517Y-60730585D01*
X32027090Y-60584584D01*
X32272271Y-60406450D01*
X32493192Y-60198992D01*
X32686370Y-59965480D01*
X32848758Y-59709598D01*
X32977794Y-59435381D01*
X33071445Y-59147154D01*
X33089024Y-59055000D01*
X67055738Y-59055000D01*
X67074767Y-59357462D01*
X67131555Y-59655154D01*
X67225206Y-59943381D01*
X67226893Y-59946967D01*
X67226895Y-59946971D01*
X67279864Y-60059536D01*
X67354242Y-60217598D01*
X67516630Y-60473480D01*
X67709808Y-60706992D01*
X67930729Y-60914450D01*
X68175910Y-61092584D01*
X68441483Y-61238585D01*
X68445152Y-61240038D01*
X68445157Y-61240040D01*
X68719591Y-61348696D01*
X68723261Y-61350149D01*
X69016800Y-61425516D01*
X69317470Y-61463500D01*
X69620530Y-61463500D01*
X69921200Y-61425516D01*
X70214739Y-61350149D01*
X70218409Y-61348696D01*
X70492843Y-61240040D01*
X70492848Y-61240038D01*
X70496517Y-61238585D01*
X70762090Y-61092584D01*
X71007271Y-60914450D01*
X71228192Y-60706992D01*
X71421370Y-60473480D01*
X71583758Y-60217598D01*
X71658136Y-60059536D01*
X71711105Y-59946971D01*
X71711107Y-59946967D01*
X71712794Y-59943381D01*
X71806445Y-59655154D01*
X71863233Y-59357462D01*
X71882262Y-59055000D01*
X71863233Y-58752538D01*
X71806445Y-58454846D01*
X71712794Y-58166619D01*
X71583758Y-57892402D01*
X71421370Y-57636520D01*
X71228192Y-57403008D01*
X71007271Y-57195550D01*
X70762090Y-57017416D01*
X70496517Y-56871415D01*
X70492848Y-56869962D01*
X70492843Y-56869960D01*
X70218409Y-56761304D01*
X70218408Y-56761304D01*
X70214739Y-56759851D01*
X69921200Y-56684484D01*
X69620530Y-56646500D01*
X69317470Y-56646500D01*
X69016800Y-56684484D01*
X68723261Y-56759851D01*
X68719592Y-56761304D01*
X68719591Y-56761304D01*
X68445157Y-56869960D01*
X68445152Y-56869962D01*
X68441483Y-56871415D01*
X68175910Y-57017416D01*
X67930729Y-57195550D01*
X67709808Y-57403008D01*
X67516630Y-57636520D01*
X67354242Y-57892402D01*
X67225206Y-58166619D01*
X67131555Y-58454846D01*
X67074767Y-58752538D01*
X67055738Y-59055000D01*
X33089024Y-59055000D01*
X33128233Y-58849462D01*
X33147262Y-58547000D01*
X33128233Y-58244538D01*
X33071445Y-57946846D01*
X32977794Y-57658619D01*
X32965961Y-57633471D01*
X32857513Y-57403008D01*
X32848758Y-57384402D01*
X32686370Y-57128520D01*
X32493192Y-56895008D01*
X32272271Y-56687550D01*
X32027090Y-56509416D01*
X31761517Y-56363415D01*
X31757848Y-56361962D01*
X31757843Y-56361960D01*
X31483409Y-56253304D01*
X31483408Y-56253304D01*
X31479739Y-56251851D01*
X31186200Y-56176484D01*
X30885530Y-56138500D01*
X30582470Y-56138500D01*
X30281800Y-56176484D01*
X29988261Y-56251851D01*
X29984592Y-56253304D01*
X29984591Y-56253304D01*
X29710157Y-56361960D01*
X29710152Y-56361962D01*
X29706483Y-56363415D01*
X29440910Y-56509416D01*
X29195729Y-56687550D01*
X28974808Y-56895008D01*
X28781630Y-57128520D01*
X28619242Y-57384402D01*
X28610487Y-57403008D01*
X28502040Y-57633471D01*
X28490206Y-57658619D01*
X28396555Y-57946846D01*
X28339767Y-58244538D01*
X28320738Y-58547000D01*
X26670000Y-58547000D01*
X26670000Y-51704839D01*
X29225173Y-51704839D01*
X29237713Y-51965908D01*
X29288704Y-52222256D01*
X29377026Y-52468252D01*
X29397189Y-52505778D01*
X29484151Y-52667622D01*
X29500737Y-52698491D01*
X29503532Y-52702234D01*
X29503534Y-52702237D01*
X29654330Y-52904177D01*
X29654335Y-52904183D01*
X29657122Y-52907915D01*
X29660431Y-52911195D01*
X29660436Y-52911201D01*
X29839426Y-53088635D01*
X29842743Y-53091923D01*
X29846505Y-53094681D01*
X29846508Y-53094684D01*
X29986400Y-53197257D01*
X30053524Y-53246474D01*
X30057667Y-53248654D01*
X30057669Y-53248655D01*
X30280684Y-53365989D01*
X30280689Y-53365991D01*
X30284834Y-53368172D01*
X30531590Y-53454344D01*
X30536183Y-53455216D01*
X30783785Y-53502224D01*
X30783788Y-53502224D01*
X30788374Y-53503095D01*
X30918958Y-53508226D01*
X31044875Y-53513174D01*
X31044881Y-53513174D01*
X31049543Y-53513357D01*
X31128977Y-53504657D01*
X31304707Y-53485412D01*
X31304712Y-53485411D01*
X31309360Y-53484902D01*
X31422116Y-53455216D01*
X31557594Y-53419548D01*
X31557596Y-53419547D01*
X31562117Y-53418357D01*
X31802262Y-53315182D01*
X32024519Y-53177646D01*
X32028082Y-53174629D01*
X32028087Y-53174626D01*
X32220439Y-53011787D01*
X32220440Y-53011786D01*
X32224005Y-53008768D01*
X32324446Y-52894237D01*
X32393257Y-52815774D01*
X32393261Y-52815769D01*
X32396339Y-52812259D01*
X32414235Y-52784437D01*
X32535208Y-52596363D01*
X32535210Y-52596360D01*
X32537733Y-52592437D01*
X32541646Y-52583751D01*
X32587859Y-52529856D01*
X32656528Y-52509500D01*
X40891930Y-52509500D01*
X40910880Y-52510933D01*
X40925115Y-52513099D01*
X40925119Y-52513099D01*
X40932349Y-52514199D01*
X40939641Y-52513606D01*
X40939644Y-52513606D01*
X40985018Y-52509915D01*
X40995233Y-52509500D01*
X41003293Y-52509500D01*
X41016583Y-52507951D01*
X41031507Y-52506211D01*
X41035882Y-52505778D01*
X41101339Y-52500454D01*
X41101342Y-52500453D01*
X41108637Y-52499860D01*
X41115601Y-52497604D01*
X41121560Y-52496413D01*
X41127415Y-52495029D01*
X41134681Y-52494182D01*
X41203327Y-52469265D01*
X41207455Y-52467848D01*
X41269936Y-52447607D01*
X41269938Y-52447606D01*
X41276899Y-52445351D01*
X41283154Y-52441555D01*
X41288628Y-52439049D01*
X41294058Y-52436330D01*
X41300937Y-52433833D01*
X41361976Y-52393814D01*
X41365680Y-52391477D01*
X41428107Y-52353595D01*
X41436484Y-52346197D01*
X41436508Y-52346224D01*
X41439500Y-52343571D01*
X41442733Y-52340868D01*
X41448852Y-52336856D01*
X41502128Y-52280617D01*
X41504506Y-52278175D01*
X45776681Y-48006000D01*
X48901693Y-48006000D01*
X48920885Y-48225371D01*
X48977880Y-48438076D01*
X49010758Y-48508583D01*
X49068618Y-48632666D01*
X49068621Y-48632671D01*
X49070944Y-48637653D01*
X49074100Y-48642160D01*
X49074101Y-48642162D01*
X49117644Y-48704347D01*
X49197251Y-48818038D01*
X49352962Y-48973749D01*
X49533346Y-49100056D01*
X49732924Y-49193120D01*
X49945629Y-49250115D01*
X50165000Y-49269307D01*
X50170475Y-49268828D01*
X50170476Y-49268828D01*
X50281761Y-49259092D01*
X50351365Y-49273081D01*
X50381837Y-49295518D01*
X53518230Y-52431911D01*
X53530616Y-52446323D01*
X53539149Y-52457918D01*
X53539154Y-52457923D01*
X53543492Y-52463818D01*
X53549070Y-52468557D01*
X53549073Y-52468560D01*
X53583768Y-52498035D01*
X53591284Y-52504965D01*
X53596980Y-52510661D01*
X53599841Y-52512924D01*
X53599846Y-52512929D01*
X53619266Y-52528293D01*
X53622667Y-52531082D01*
X53678285Y-52578333D01*
X53684798Y-52581659D01*
X53689837Y-52585020D01*
X53694979Y-52588196D01*
X53700716Y-52592734D01*
X53766875Y-52623655D01*
X53770769Y-52625558D01*
X53835808Y-52658769D01*
X53842917Y-52660508D01*
X53848551Y-52662604D01*
X53854321Y-52664523D01*
X53860950Y-52667622D01*
X53868113Y-52669112D01*
X53868116Y-52669113D01*
X53918830Y-52679661D01*
X53932435Y-52682491D01*
X53936701Y-52683457D01*
X54007610Y-52700808D01*
X54013212Y-52701156D01*
X54013215Y-52701156D01*
X54018764Y-52701500D01*
X54018762Y-52701535D01*
X54022734Y-52701775D01*
X54026955Y-52702152D01*
X54034115Y-52703641D01*
X54111542Y-52701546D01*
X54114950Y-52701500D01*
X67296854Y-52701500D01*
X67364975Y-52721502D01*
X67407846Y-52767862D01*
X67473737Y-52890491D01*
X67476532Y-52894234D01*
X67476534Y-52894237D01*
X67627330Y-53096177D01*
X67627335Y-53096183D01*
X67630122Y-53099915D01*
X67633431Y-53103195D01*
X67633436Y-53103201D01*
X67780166Y-53248655D01*
X67815743Y-53283923D01*
X67819505Y-53286681D01*
X67819508Y-53286684D01*
X67996570Y-53416511D01*
X68026524Y-53438474D01*
X68030667Y-53440654D01*
X68030669Y-53440655D01*
X68253684Y-53557989D01*
X68253689Y-53557991D01*
X68257834Y-53560172D01*
X68504590Y-53646344D01*
X68509183Y-53647216D01*
X68756785Y-53694224D01*
X68756788Y-53694224D01*
X68761374Y-53695095D01*
X68891958Y-53700226D01*
X69017875Y-53705174D01*
X69017881Y-53705174D01*
X69022543Y-53705357D01*
X69101977Y-53696657D01*
X69277707Y-53677412D01*
X69277712Y-53677411D01*
X69282360Y-53676902D01*
X69395116Y-53647216D01*
X69530594Y-53611548D01*
X69530596Y-53611547D01*
X69535117Y-53610357D01*
X69775262Y-53507182D01*
X69918803Y-53418357D01*
X69993547Y-53372104D01*
X69993548Y-53372104D01*
X69997519Y-53369646D01*
X70001082Y-53366629D01*
X70001087Y-53366626D01*
X70193439Y-53203787D01*
X70193440Y-53203786D01*
X70197005Y-53200768D01*
X70288729Y-53096177D01*
X70366257Y-53007774D01*
X70366261Y-53007769D01*
X70369339Y-53004259D01*
X70510733Y-52784437D01*
X70618083Y-52546129D01*
X70622327Y-52531082D01*
X70687760Y-52299076D01*
X70687761Y-52299073D01*
X70689030Y-52294572D01*
X70722014Y-52035291D01*
X70724431Y-51943000D01*
X70707080Y-51709511D01*
X70705407Y-51687000D01*
X70705406Y-51686996D01*
X70705061Y-51682348D01*
X70647377Y-51427423D01*
X70552647Y-51183823D01*
X70422951Y-50956902D01*
X70261138Y-50751643D01*
X70070763Y-50572557D01*
X69856009Y-50423576D01*
X69851816Y-50421508D01*
X69625781Y-50310040D01*
X69625778Y-50310039D01*
X69621593Y-50307975D01*
X69575449Y-50293204D01*
X69377123Y-50229720D01*
X69372665Y-50228293D01*
X69114693Y-50186279D01*
X69000942Y-50184790D01*
X68858022Y-50182919D01*
X68858019Y-50182919D01*
X68853345Y-50182858D01*
X68594362Y-50218104D01*
X68589876Y-50219412D01*
X68589874Y-50219412D01*
X68538998Y-50234241D01*
X68343433Y-50291243D01*
X68339180Y-50293203D01*
X68339179Y-50293204D01*
X68302659Y-50310040D01*
X68106072Y-50400668D01*
X68067067Y-50426241D01*
X67891404Y-50541410D01*
X67891399Y-50541414D01*
X67887491Y-50543976D01*
X67692494Y-50718018D01*
X67525363Y-50918970D01*
X67492882Y-50972498D01*
X67401030Y-51123865D01*
X67348591Y-51171726D01*
X67293311Y-51184500D01*
X54468371Y-51184500D01*
X54400250Y-51164498D01*
X54379276Y-51147595D01*
X51583814Y-48352133D01*
X67916612Y-48352133D01*
X67925325Y-48363653D01*
X68023018Y-48435284D01*
X68030928Y-48440227D01*
X68253890Y-48557533D01*
X68262453Y-48561256D01*
X68500304Y-48644318D01*
X68509313Y-48646732D01*
X68756842Y-48693727D01*
X68766098Y-48694781D01*
X69017857Y-48704673D01*
X69027171Y-48704347D01*
X69277615Y-48676920D01*
X69286792Y-48675219D01*
X69530431Y-48611074D01*
X69539251Y-48608037D01*
X69770736Y-48508583D01*
X69779008Y-48504276D01*
X69993249Y-48371700D01*
X70000188Y-48366658D01*
X70008518Y-48354019D01*
X70002456Y-48343666D01*
X68973812Y-47315022D01*
X68959868Y-47307408D01*
X68958035Y-47307539D01*
X68951420Y-47311790D01*
X67923270Y-48339940D01*
X67916612Y-48352133D01*
X51583814Y-48352133D01*
X51454518Y-48222837D01*
X51420492Y-48160525D01*
X51418092Y-48122761D01*
X51427828Y-48011476D01*
X51427828Y-48011475D01*
X51428307Y-48006000D01*
X51409115Y-47786629D01*
X51352120Y-47573924D01*
X51302972Y-47468526D01*
X51261382Y-47379334D01*
X51261379Y-47379329D01*
X51259056Y-47374347D01*
X51246563Y-47356505D01*
X51135908Y-47198473D01*
X51135906Y-47198470D01*
X51132749Y-47193962D01*
X50977038Y-47038251D01*
X50796654Y-46911944D01*
X50774306Y-46901523D01*
X67198898Y-46901523D01*
X67210987Y-47153175D01*
X67212124Y-47162435D01*
X67261274Y-47409535D01*
X67263768Y-47418528D01*
X67348900Y-47655639D01*
X67352700Y-47664174D01*
X67471946Y-47886101D01*
X67476957Y-47893968D01*
X67540446Y-47978990D01*
X67551704Y-47987439D01*
X67564123Y-47980667D01*
X68588978Y-46955812D01*
X68595356Y-46944132D01*
X69325408Y-46944132D01*
X69325539Y-46945965D01*
X69329790Y-46952580D01*
X70360913Y-47983703D01*
X70373293Y-47990463D01*
X70381634Y-47984219D01*
X70507765Y-47788127D01*
X70512212Y-47779936D01*
X70615691Y-47550222D01*
X70618882Y-47541455D01*
X70687269Y-47298976D01*
X70689129Y-47289834D01*
X70721116Y-47038396D01*
X70721597Y-47032108D01*
X70723847Y-46946160D01*
X70723696Y-46939851D01*
X70704912Y-46687074D01*
X70703536Y-46677868D01*
X70647929Y-46432126D01*
X70645205Y-46423215D01*
X70553888Y-46188392D01*
X70549877Y-46179983D01*
X70424854Y-45961240D01*
X70419643Y-45953514D01*
X70382391Y-45906261D01*
X70370466Y-45897790D01*
X70358934Y-45904276D01*
X69333022Y-46930188D01*
X69325408Y-46944132D01*
X68595356Y-46944132D01*
X68596592Y-46941868D01*
X68596461Y-46940035D01*
X68592210Y-46933420D01*
X67562321Y-45903531D01*
X67549013Y-45896264D01*
X67538974Y-45903386D01*
X67528761Y-45915666D01*
X67523346Y-45923258D01*
X67392646Y-46138646D01*
X67388408Y-46146963D01*
X67290981Y-46379299D01*
X67288020Y-46388149D01*
X67226006Y-46632331D01*
X67224384Y-46641528D01*
X67199143Y-46892198D01*
X67198898Y-46901523D01*
X50774306Y-46901523D01*
X50597076Y-46818880D01*
X50384371Y-46761885D01*
X50165000Y-46742693D01*
X49945629Y-46761885D01*
X49732924Y-46818880D01*
X49639562Y-46862415D01*
X49538334Y-46909618D01*
X49538329Y-46909621D01*
X49533347Y-46911944D01*
X49528840Y-46915100D01*
X49528838Y-46915101D01*
X49357473Y-47035092D01*
X49357470Y-47035094D01*
X49352962Y-47038251D01*
X49197251Y-47193962D01*
X49194094Y-47198470D01*
X49194092Y-47198473D01*
X49083437Y-47356505D01*
X49070944Y-47374347D01*
X49068621Y-47379329D01*
X49068618Y-47379334D01*
X49027028Y-47468526D01*
X48977880Y-47573924D01*
X48920885Y-47786629D01*
X48901693Y-48006000D01*
X45776681Y-48006000D01*
X48250878Y-45531803D01*
X67914216Y-45531803D01*
X67918789Y-45541579D01*
X68948188Y-46570978D01*
X68962132Y-46578592D01*
X68963965Y-46578461D01*
X68970580Y-46574210D01*
X69999419Y-45545371D01*
X70005803Y-45533681D01*
X69996391Y-45521570D01*
X69859593Y-45426670D01*
X69851565Y-45421942D01*
X69625593Y-45310505D01*
X69616960Y-45307017D01*
X69376998Y-45230205D01*
X69367938Y-45228029D01*
X69119260Y-45187529D01*
X69109973Y-45186717D01*
X68858053Y-45183419D01*
X68848742Y-45183989D01*
X68599097Y-45217964D01*
X68589978Y-45219902D01*
X68348098Y-45290404D01*
X68339367Y-45293667D01*
X68110558Y-45399151D01*
X68102406Y-45403670D01*
X67923353Y-45521062D01*
X67914216Y-45531803D01*
X48250878Y-45531803D01*
X51218163Y-42564518D01*
X51280475Y-42530492D01*
X51318239Y-42528092D01*
X51429524Y-42537828D01*
X51429525Y-42537828D01*
X51435000Y-42538307D01*
X51654371Y-42519115D01*
X51867076Y-42462120D01*
X52066654Y-42369056D01*
X52247038Y-42242749D01*
X52402749Y-42087038D01*
X52484396Y-41970435D01*
X52525899Y-41911162D01*
X52525900Y-41911160D01*
X52529056Y-41906653D01*
X52531379Y-41901671D01*
X52531382Y-41901666D01*
X52578585Y-41800438D01*
X52622120Y-41707076D01*
X52679115Y-41494371D01*
X52698307Y-41275000D01*
X52679115Y-41055629D01*
X52622120Y-40842924D01*
X52578063Y-40748443D01*
X52531382Y-40648334D01*
X52531379Y-40648329D01*
X52529056Y-40643347D01*
X52481733Y-40575763D01*
X52405908Y-40467473D01*
X52405906Y-40467470D01*
X52402749Y-40462962D01*
X52247038Y-40307251D01*
X52224177Y-40291243D01*
X52134275Y-40228293D01*
X52066654Y-40180944D01*
X51867076Y-40087880D01*
X51654371Y-40030885D01*
X51435000Y-40011693D01*
X51215629Y-40030885D01*
X51002924Y-40087880D01*
X50909562Y-40131415D01*
X50808334Y-40178618D01*
X50808329Y-40178621D01*
X50803347Y-40180944D01*
X50798840Y-40184100D01*
X50798838Y-40184101D01*
X50627473Y-40304092D01*
X50627470Y-40304094D01*
X50622962Y-40307251D01*
X50467251Y-40462962D01*
X50464094Y-40467470D01*
X50464092Y-40467473D01*
X50388267Y-40575763D01*
X50340944Y-40643347D01*
X50338621Y-40648329D01*
X50338618Y-40648334D01*
X50291937Y-40748443D01*
X50247880Y-40842924D01*
X50190885Y-41055629D01*
X50171693Y-41275000D01*
X50172172Y-41280475D01*
X50172172Y-41280476D01*
X50181908Y-41391761D01*
X50167919Y-41461365D01*
X50145482Y-41491837D01*
X40681724Y-50955595D01*
X40619412Y-50989621D01*
X40592629Y-50992500D01*
X32653147Y-50992500D01*
X32585026Y-50972498D01*
X32543754Y-50929023D01*
X32452270Y-50768960D01*
X32449951Y-50764902D01*
X32288138Y-50559643D01*
X32097763Y-50380557D01*
X31883009Y-50231576D01*
X31858343Y-50219412D01*
X31652781Y-50118040D01*
X31652778Y-50118039D01*
X31648593Y-50115975D01*
X31602449Y-50101204D01*
X31404123Y-50037720D01*
X31399665Y-50036293D01*
X31141693Y-49994279D01*
X31027942Y-49992790D01*
X30885022Y-49990919D01*
X30885019Y-49990919D01*
X30880345Y-49990858D01*
X30621362Y-50026104D01*
X30370433Y-50099243D01*
X30366180Y-50101203D01*
X30366179Y-50101204D01*
X30329659Y-50118040D01*
X30133072Y-50208668D01*
X30094067Y-50234241D01*
X29918404Y-50349410D01*
X29918399Y-50349414D01*
X29914491Y-50351976D01*
X29719494Y-50526018D01*
X29552363Y-50726970D01*
X29549934Y-50730973D01*
X29433426Y-50922973D01*
X29416771Y-50950419D01*
X29315697Y-51191455D01*
X29251359Y-51444783D01*
X29225173Y-51704839D01*
X26670000Y-51704839D01*
X26670000Y-46704839D01*
X29225173Y-46704839D01*
X29237713Y-46965908D01*
X29288704Y-47222256D01*
X29377026Y-47468252D01*
X29394329Y-47500454D01*
X29443753Y-47592437D01*
X29500737Y-47698491D01*
X29503532Y-47702234D01*
X29503534Y-47702237D01*
X29654330Y-47904177D01*
X29654335Y-47904183D01*
X29657122Y-47907915D01*
X29660431Y-47911195D01*
X29660436Y-47911201D01*
X29839426Y-48088635D01*
X29842743Y-48091923D01*
X29846505Y-48094681D01*
X29846508Y-48094684D01*
X29964624Y-48181290D01*
X30053524Y-48246474D01*
X30057667Y-48248654D01*
X30057669Y-48248655D01*
X30280684Y-48365989D01*
X30280689Y-48365991D01*
X30284834Y-48368172D01*
X30294937Y-48371700D01*
X30491166Y-48440227D01*
X30531590Y-48454344D01*
X30536183Y-48455216D01*
X30783785Y-48502224D01*
X30783788Y-48502224D01*
X30788374Y-48503095D01*
X30918958Y-48508226D01*
X31044875Y-48513174D01*
X31044881Y-48513174D01*
X31049543Y-48513357D01*
X31132460Y-48504276D01*
X31304707Y-48485412D01*
X31304712Y-48485411D01*
X31309360Y-48484902D01*
X31422116Y-48455216D01*
X31557594Y-48419548D01*
X31557596Y-48419547D01*
X31562117Y-48418357D01*
X31802262Y-48315182D01*
X32024519Y-48177646D01*
X32028082Y-48174629D01*
X32028087Y-48174626D01*
X32220439Y-48011787D01*
X32220440Y-48011786D01*
X32224005Y-48008768D01*
X32324682Y-47893968D01*
X32393257Y-47815774D01*
X32393261Y-47815769D01*
X32396339Y-47812259D01*
X32417130Y-47779936D01*
X32535208Y-47596363D01*
X32535210Y-47596360D01*
X32537733Y-47592437D01*
X32541646Y-47583751D01*
X32587859Y-47529856D01*
X32656528Y-47509500D01*
X36523930Y-47509500D01*
X36542880Y-47510933D01*
X36557115Y-47513099D01*
X36557119Y-47513099D01*
X36564349Y-47514199D01*
X36571641Y-47513606D01*
X36571644Y-47513606D01*
X36617018Y-47509915D01*
X36627233Y-47509500D01*
X36635293Y-47509500D01*
X36648583Y-47507951D01*
X36663507Y-47506211D01*
X36667882Y-47505778D01*
X36733339Y-47500454D01*
X36733342Y-47500453D01*
X36740637Y-47499860D01*
X36747601Y-47497604D01*
X36753560Y-47496413D01*
X36759415Y-47495029D01*
X36766681Y-47494182D01*
X36835327Y-47469265D01*
X36839455Y-47467848D01*
X36901936Y-47447607D01*
X36901938Y-47447606D01*
X36908899Y-47445351D01*
X36915154Y-47441555D01*
X36920628Y-47439049D01*
X36926058Y-47436330D01*
X36932937Y-47433833D01*
X36956281Y-47418528D01*
X36993976Y-47393814D01*
X36997680Y-47391477D01*
X37060107Y-47353595D01*
X37068484Y-47346197D01*
X37068508Y-47346224D01*
X37071500Y-47343571D01*
X37074733Y-47340868D01*
X37080852Y-47336856D01*
X37134128Y-47280617D01*
X37136506Y-47278175D01*
X49455905Y-34958776D01*
X49518217Y-34924750D01*
X49589032Y-34929815D01*
X49634095Y-34958776D01*
X57107230Y-42431911D01*
X57119616Y-42446323D01*
X57128149Y-42457918D01*
X57128154Y-42457923D01*
X57132492Y-42463818D01*
X57138070Y-42468557D01*
X57138073Y-42468560D01*
X57172768Y-42498035D01*
X57180284Y-42504965D01*
X57185979Y-42510660D01*
X57188861Y-42512940D01*
X57208251Y-42528281D01*
X57211655Y-42531072D01*
X57261703Y-42573591D01*
X57267285Y-42578333D01*
X57273801Y-42581661D01*
X57278850Y-42585028D01*
X57283979Y-42588195D01*
X57289716Y-42592734D01*
X57355875Y-42623655D01*
X57359769Y-42625558D01*
X57424808Y-42658769D01*
X57431916Y-42660508D01*
X57437559Y-42662607D01*
X57443322Y-42664524D01*
X57449950Y-42667622D01*
X57457112Y-42669112D01*
X57457113Y-42669112D01*
X57521412Y-42682486D01*
X57525696Y-42683456D01*
X57596610Y-42700808D01*
X57602212Y-42701156D01*
X57602215Y-42701156D01*
X57607764Y-42701500D01*
X57607762Y-42701536D01*
X57611755Y-42701775D01*
X57615947Y-42702149D01*
X57623115Y-42703640D01*
X57700520Y-42701546D01*
X57703928Y-42701500D01*
X67296854Y-42701500D01*
X67364975Y-42721502D01*
X67407846Y-42767862D01*
X67420934Y-42792219D01*
X67473737Y-42890491D01*
X67476532Y-42894234D01*
X67476534Y-42894237D01*
X67627330Y-43096177D01*
X67627335Y-43096183D01*
X67630122Y-43099915D01*
X67633431Y-43103195D01*
X67633436Y-43103201D01*
X67779734Y-43248227D01*
X67815743Y-43283923D01*
X67819505Y-43286681D01*
X67819508Y-43286684D01*
X68022750Y-43435707D01*
X68026524Y-43438474D01*
X68030667Y-43440654D01*
X68030669Y-43440655D01*
X68253684Y-43557989D01*
X68253689Y-43557991D01*
X68257834Y-43560172D01*
X68504590Y-43646344D01*
X68509183Y-43647216D01*
X68756785Y-43694224D01*
X68756788Y-43694224D01*
X68761374Y-43695095D01*
X68891959Y-43700226D01*
X69017875Y-43705174D01*
X69017881Y-43705174D01*
X69022543Y-43705357D01*
X69101977Y-43696657D01*
X69277707Y-43677412D01*
X69277712Y-43677411D01*
X69282360Y-43676902D01*
X69395116Y-43647216D01*
X69530594Y-43611548D01*
X69530596Y-43611547D01*
X69535117Y-43610357D01*
X69775262Y-43507182D01*
X69997519Y-43369646D01*
X70001082Y-43366629D01*
X70001087Y-43366626D01*
X70193439Y-43203787D01*
X70193440Y-43203786D01*
X70197005Y-43200768D01*
X70288729Y-43096177D01*
X70366257Y-43007774D01*
X70366261Y-43007769D01*
X70369339Y-43004259D01*
X70510733Y-42784437D01*
X70618083Y-42546129D01*
X70642961Y-42457918D01*
X70687760Y-42299076D01*
X70687761Y-42299073D01*
X70689030Y-42294572D01*
X70698830Y-42217535D01*
X70721616Y-42038421D01*
X70721616Y-42038417D01*
X70722014Y-42035291D01*
X70724431Y-41943000D01*
X70710079Y-41749868D01*
X70705407Y-41687000D01*
X70705406Y-41686996D01*
X70705061Y-41682348D01*
X70647377Y-41427423D01*
X70590233Y-41280475D01*
X70554340Y-41188176D01*
X70554339Y-41188173D01*
X70552647Y-41183823D01*
X70422951Y-40956902D01*
X70261138Y-40751643D01*
X70070763Y-40572557D01*
X69856009Y-40423576D01*
X69851816Y-40421508D01*
X69625781Y-40310040D01*
X69625778Y-40310039D01*
X69621593Y-40307975D01*
X69609463Y-40304092D01*
X69377123Y-40229720D01*
X69372665Y-40228293D01*
X69114693Y-40186279D01*
X69000942Y-40184790D01*
X68858022Y-40182919D01*
X68858019Y-40182919D01*
X68853345Y-40182858D01*
X68594362Y-40218104D01*
X68589876Y-40219412D01*
X68589874Y-40219412D01*
X68522336Y-40239098D01*
X68343433Y-40291243D01*
X68339180Y-40293203D01*
X68339179Y-40293204D01*
X68302659Y-40310040D01*
X68106072Y-40400668D01*
X68067067Y-40426241D01*
X67891404Y-40541410D01*
X67891399Y-40541414D01*
X67887491Y-40543976D01*
X67776156Y-40643347D01*
X67699925Y-40711386D01*
X67692494Y-40718018D01*
X67525363Y-40918970D01*
X67442437Y-41055629D01*
X67401030Y-41123865D01*
X67348591Y-41171726D01*
X67293311Y-41184500D01*
X58057371Y-41184500D01*
X57989250Y-41164498D01*
X57968276Y-41147595D01*
X50340405Y-33519724D01*
X50306379Y-33457412D01*
X50303500Y-33430629D01*
X50303500Y-26560892D01*
X50323502Y-26492771D01*
X50363197Y-26453747D01*
X50577547Y-26321104D01*
X50577548Y-26321104D01*
X50581519Y-26318646D01*
X50585082Y-26315629D01*
X50585087Y-26315626D01*
X50777439Y-26152787D01*
X50777440Y-26152786D01*
X50781005Y-26149768D01*
X50872729Y-26045177D01*
X50950257Y-25956774D01*
X50950261Y-25956769D01*
X50953339Y-25953259D01*
X51094733Y-25733437D01*
X51202083Y-25495129D01*
X51240607Y-25358535D01*
X51271760Y-25248076D01*
X51271761Y-25248073D01*
X51273030Y-25243572D01*
X51284939Y-25149958D01*
X51305616Y-24987421D01*
X51305616Y-24987417D01*
X51306014Y-24984291D01*
X51306098Y-24981108D01*
X51308348Y-24895160D01*
X51308431Y-24892000D01*
X51305001Y-24845839D01*
X52782173Y-24845839D01*
X52782397Y-24850505D01*
X52782397Y-24850511D01*
X52788443Y-24976373D01*
X52794713Y-25106908D01*
X52845704Y-25363256D01*
X52934026Y-25609252D01*
X52936242Y-25613376D01*
X53007586Y-25746154D01*
X53057737Y-25839491D01*
X53060532Y-25843234D01*
X53060534Y-25843237D01*
X53211330Y-26045177D01*
X53211335Y-26045183D01*
X53214122Y-26048915D01*
X53217431Y-26052195D01*
X53217436Y-26052201D01*
X53396426Y-26229635D01*
X53399743Y-26232923D01*
X53403505Y-26235681D01*
X53403508Y-26235684D01*
X53520016Y-26321111D01*
X53610524Y-26387474D01*
X53614657Y-26389648D01*
X53614661Y-26389651D01*
X53719168Y-26444635D01*
X53770140Y-26494054D01*
X53786500Y-26556143D01*
X53786500Y-26664930D01*
X53785067Y-26683880D01*
X53781801Y-26705349D01*
X53782394Y-26712641D01*
X53782394Y-26712644D01*
X53786085Y-26758018D01*
X53786500Y-26768233D01*
X53786500Y-26776293D01*
X53786925Y-26779937D01*
X53789789Y-26804507D01*
X53790222Y-26808882D01*
X53796140Y-26881637D01*
X53798396Y-26888601D01*
X53799587Y-26894560D01*
X53800971Y-26900415D01*
X53801818Y-26907681D01*
X53826735Y-26976327D01*
X53828152Y-26980455D01*
X53837004Y-27007778D01*
X53850649Y-27049899D01*
X53854445Y-27056154D01*
X53856951Y-27061628D01*
X53859670Y-27067058D01*
X53862167Y-27073937D01*
X53866180Y-27080057D01*
X53866180Y-27080058D01*
X53902186Y-27134976D01*
X53904523Y-27138680D01*
X53942405Y-27201107D01*
X53946121Y-27205315D01*
X53946122Y-27205316D01*
X53949803Y-27209484D01*
X53949776Y-27209508D01*
X53952429Y-27212500D01*
X53955132Y-27215733D01*
X53959144Y-27221852D01*
X53964456Y-27226884D01*
X54015383Y-27275128D01*
X54017825Y-27277506D01*
X59163224Y-32422905D01*
X59197250Y-32485217D01*
X59192185Y-32556032D01*
X59163224Y-32601095D01*
X57493837Y-34270482D01*
X57431525Y-34304508D01*
X57393761Y-34306908D01*
X57282476Y-34297172D01*
X57282475Y-34297172D01*
X57277000Y-34296693D01*
X57057629Y-34315885D01*
X56844924Y-34372880D01*
X56751562Y-34416415D01*
X56650334Y-34463618D01*
X56650329Y-34463621D01*
X56645347Y-34465944D01*
X56640840Y-34469100D01*
X56640838Y-34469101D01*
X56469473Y-34589092D01*
X56469470Y-34589094D01*
X56464962Y-34592251D01*
X56309251Y-34747962D01*
X56182944Y-34928347D01*
X56180621Y-34933329D01*
X56180618Y-34933334D01*
X56153795Y-34990858D01*
X56089880Y-35127924D01*
X56032885Y-35340629D01*
X56013693Y-35560000D01*
X56032885Y-35779371D01*
X56089880Y-35992076D01*
X56092205Y-35997061D01*
X56180618Y-36186666D01*
X56180621Y-36186671D01*
X56182944Y-36191653D01*
X56186100Y-36196160D01*
X56186101Y-36196162D01*
X56302297Y-36362106D01*
X56309251Y-36372038D01*
X56464962Y-36527749D01*
X56645346Y-36654056D01*
X56844924Y-36747120D01*
X57057629Y-36804115D01*
X57277000Y-36823307D01*
X57496371Y-36804115D01*
X57709076Y-36747120D01*
X57908654Y-36654056D01*
X58089038Y-36527749D01*
X58244749Y-36372038D01*
X58251704Y-36362106D01*
X58367899Y-36196162D01*
X58367900Y-36196160D01*
X58371056Y-36191653D01*
X58373379Y-36186671D01*
X58373382Y-36186666D01*
X58461795Y-35997061D01*
X58464120Y-35992076D01*
X58521115Y-35779371D01*
X58540307Y-35560000D01*
X58538681Y-35541410D01*
X58530092Y-35443239D01*
X58544081Y-35373635D01*
X58566518Y-35343163D01*
X60235905Y-33673776D01*
X60298217Y-33639750D01*
X60369032Y-33644815D01*
X60414095Y-33673776D01*
X64172230Y-37431911D01*
X64184616Y-37446323D01*
X64193149Y-37457918D01*
X64193154Y-37457923D01*
X64197492Y-37463818D01*
X64203070Y-37468557D01*
X64203073Y-37468560D01*
X64237768Y-37498035D01*
X64245284Y-37504965D01*
X64250980Y-37510661D01*
X64253841Y-37512924D01*
X64253846Y-37512929D01*
X64273256Y-37528285D01*
X64276658Y-37531074D01*
X64332285Y-37578333D01*
X64338802Y-37581661D01*
X64343850Y-37585027D01*
X64348972Y-37588190D01*
X64354716Y-37592735D01*
X64420895Y-37623664D01*
X64424779Y-37625563D01*
X64489808Y-37658769D01*
X64496923Y-37660510D01*
X64502578Y-37662613D01*
X64508317Y-37664522D01*
X64514950Y-37667622D01*
X64586435Y-37682491D01*
X64590701Y-37683457D01*
X64661610Y-37700808D01*
X64667212Y-37701156D01*
X64667215Y-37701156D01*
X64672764Y-37701500D01*
X64672762Y-37701535D01*
X64676734Y-37701775D01*
X64680955Y-37702152D01*
X64688115Y-37703641D01*
X64765542Y-37701546D01*
X64768950Y-37701500D01*
X67296854Y-37701500D01*
X67364975Y-37721502D01*
X67407846Y-37767862D01*
X67473737Y-37890491D01*
X67476532Y-37894234D01*
X67476534Y-37894237D01*
X67627330Y-38096177D01*
X67627335Y-38096183D01*
X67630122Y-38099915D01*
X67633431Y-38103195D01*
X67633436Y-38103201D01*
X67780166Y-38248655D01*
X67815743Y-38283923D01*
X67819505Y-38286681D01*
X67819508Y-38286684D01*
X67996570Y-38416511D01*
X68026524Y-38438474D01*
X68030667Y-38440654D01*
X68030669Y-38440655D01*
X68253684Y-38557989D01*
X68253689Y-38557991D01*
X68257834Y-38560172D01*
X68504590Y-38646344D01*
X68509183Y-38647216D01*
X68756785Y-38694224D01*
X68756788Y-38694224D01*
X68761374Y-38695095D01*
X68891959Y-38700226D01*
X69017875Y-38705174D01*
X69017881Y-38705174D01*
X69022543Y-38705357D01*
X69101977Y-38696657D01*
X69277707Y-38677412D01*
X69277712Y-38677411D01*
X69282360Y-38676902D01*
X69395116Y-38647216D01*
X69530594Y-38611548D01*
X69530596Y-38611547D01*
X69535117Y-38610357D01*
X69775262Y-38507182D01*
X69918803Y-38418357D01*
X69993547Y-38372104D01*
X69993548Y-38372104D01*
X69997519Y-38369646D01*
X70001082Y-38366629D01*
X70001087Y-38366626D01*
X70193439Y-38203787D01*
X70193440Y-38203786D01*
X70197005Y-38200768D01*
X70288729Y-38096177D01*
X70366257Y-38007774D01*
X70366261Y-38007769D01*
X70369339Y-38004259D01*
X70510733Y-37784437D01*
X70618083Y-37546129D01*
X70622329Y-37531074D01*
X70687760Y-37299076D01*
X70687761Y-37299073D01*
X70689030Y-37294572D01*
X70722014Y-37035291D01*
X70724431Y-36943000D01*
X70709980Y-36748543D01*
X70705407Y-36687000D01*
X70705406Y-36686996D01*
X70705061Y-36682348D01*
X70699186Y-36656381D01*
X70661853Y-36491399D01*
X70647377Y-36427423D01*
X70617782Y-36351319D01*
X70554340Y-36188176D01*
X70554339Y-36188173D01*
X70552647Y-36183823D01*
X70422951Y-35956902D01*
X70261138Y-35751643D01*
X70070763Y-35572557D01*
X69856009Y-35423576D01*
X69851816Y-35421508D01*
X69625781Y-35310040D01*
X69625778Y-35310039D01*
X69621593Y-35307975D01*
X69575449Y-35293204D01*
X69377123Y-35229720D01*
X69372665Y-35228293D01*
X69114693Y-35186279D01*
X69000942Y-35184790D01*
X68858022Y-35182919D01*
X68858019Y-35182919D01*
X68853345Y-35182858D01*
X68594362Y-35218104D01*
X68589876Y-35219412D01*
X68589874Y-35219412D01*
X68538998Y-35234241D01*
X68343433Y-35291243D01*
X68339180Y-35293203D01*
X68339179Y-35293204D01*
X68302659Y-35310040D01*
X68106072Y-35400668D01*
X68067067Y-35426241D01*
X67891404Y-35541410D01*
X67891399Y-35541414D01*
X67887491Y-35543976D01*
X67692494Y-35718018D01*
X67525363Y-35918970D01*
X67492882Y-35972498D01*
X67401030Y-36123865D01*
X67348591Y-36171726D01*
X67293311Y-36184500D01*
X65122371Y-36184500D01*
X65054250Y-36164498D01*
X65033276Y-36147595D01*
X61099270Y-32213589D01*
X61086884Y-32199177D01*
X61078351Y-32187582D01*
X61078346Y-32187577D01*
X61074008Y-32181682D01*
X61068430Y-32176943D01*
X61068427Y-32176940D01*
X61033732Y-32147465D01*
X61026216Y-32140535D01*
X55461026Y-26575345D01*
X55427000Y-26513033D01*
X55432065Y-26442218D01*
X55474612Y-26385382D01*
X55483818Y-26379106D01*
X55577538Y-26321111D01*
X55577552Y-26321101D01*
X55581519Y-26318646D01*
X55585082Y-26315629D01*
X55585087Y-26315626D01*
X55777439Y-26152787D01*
X55777440Y-26152786D01*
X55781005Y-26149768D01*
X55872729Y-26045177D01*
X55950257Y-25956774D01*
X55950261Y-25956769D01*
X55953339Y-25953259D01*
X56094733Y-25733437D01*
X56202083Y-25495129D01*
X56240607Y-25358535D01*
X56271760Y-25248076D01*
X56271761Y-25248073D01*
X56273030Y-25243572D01*
X56284939Y-25149958D01*
X56305616Y-24987421D01*
X56305616Y-24987417D01*
X56306014Y-24984291D01*
X56306098Y-24981108D01*
X56308348Y-24895160D01*
X56308431Y-24892000D01*
X56305001Y-24845839D01*
X57782173Y-24845839D01*
X57782397Y-24850505D01*
X57782397Y-24850511D01*
X57788443Y-24976373D01*
X57794713Y-25106908D01*
X57845704Y-25363256D01*
X57934026Y-25609252D01*
X57936242Y-25613376D01*
X58007586Y-25746154D01*
X58057737Y-25839491D01*
X58060532Y-25843234D01*
X58060534Y-25843237D01*
X58211330Y-26045177D01*
X58211335Y-26045183D01*
X58214122Y-26048915D01*
X58217431Y-26052195D01*
X58217436Y-26052201D01*
X58396426Y-26229635D01*
X58399743Y-26232923D01*
X58403505Y-26235681D01*
X58403508Y-26235684D01*
X58520016Y-26321111D01*
X58610524Y-26387474D01*
X58614667Y-26389654D01*
X58614669Y-26389655D01*
X58837684Y-26506989D01*
X58837689Y-26506991D01*
X58841834Y-26509172D01*
X59088590Y-26595344D01*
X59093183Y-26596216D01*
X59340785Y-26643224D01*
X59340788Y-26643224D01*
X59345374Y-26644095D01*
X59475959Y-26649226D01*
X59601875Y-26654174D01*
X59601881Y-26654174D01*
X59606543Y-26654357D01*
X59685977Y-26645657D01*
X59861707Y-26626412D01*
X59861712Y-26626411D01*
X59866360Y-26625902D01*
X60065398Y-26573500D01*
X60136366Y-26575499D01*
X60186572Y-26606253D01*
X66012227Y-32431907D01*
X66024613Y-32446319D01*
X66033149Y-32457917D01*
X66037492Y-32463818D01*
X66043070Y-32468557D01*
X66043073Y-32468560D01*
X66077775Y-32498041D01*
X66085291Y-32504971D01*
X66090980Y-32510660D01*
X66093834Y-32512918D01*
X66093844Y-32512927D01*
X66113242Y-32528274D01*
X66116642Y-32531062D01*
X66166707Y-32573595D01*
X66166711Y-32573598D01*
X66172285Y-32578333D01*
X66178800Y-32581660D01*
X66183837Y-32585019D01*
X66188975Y-32588192D01*
X66194716Y-32592734D01*
X66260875Y-32623655D01*
X66264769Y-32625558D01*
X66329808Y-32658769D01*
X66336917Y-32660508D01*
X66342551Y-32662604D01*
X66348321Y-32664523D01*
X66354950Y-32667622D01*
X66362113Y-32669112D01*
X66362116Y-32669113D01*
X66412830Y-32679661D01*
X66426435Y-32682491D01*
X66430701Y-32683457D01*
X66501610Y-32700808D01*
X66507212Y-32701156D01*
X66507215Y-32701156D01*
X66512764Y-32701500D01*
X66512762Y-32701535D01*
X66516734Y-32701775D01*
X66520955Y-32702152D01*
X66528115Y-32703641D01*
X66605542Y-32701546D01*
X66608950Y-32701500D01*
X67296854Y-32701500D01*
X67364975Y-32721502D01*
X67407846Y-32767862D01*
X67473737Y-32890491D01*
X67476532Y-32894234D01*
X67476534Y-32894237D01*
X67627330Y-33096177D01*
X67627335Y-33096183D01*
X67630122Y-33099915D01*
X67633431Y-33103195D01*
X67633436Y-33103201D01*
X67812426Y-33280635D01*
X67815743Y-33283923D01*
X67819505Y-33286681D01*
X67819508Y-33286684D01*
X68022750Y-33435707D01*
X68026524Y-33438474D01*
X68030667Y-33440654D01*
X68030669Y-33440655D01*
X68253684Y-33557989D01*
X68253689Y-33557991D01*
X68257834Y-33560172D01*
X68504590Y-33646344D01*
X68509183Y-33647216D01*
X68756785Y-33694224D01*
X68756788Y-33694224D01*
X68761374Y-33695095D01*
X68891958Y-33700226D01*
X69017875Y-33705174D01*
X69017881Y-33705174D01*
X69022543Y-33705357D01*
X69101977Y-33696657D01*
X69277707Y-33677412D01*
X69277712Y-33677411D01*
X69282360Y-33676902D01*
X69286884Y-33675711D01*
X69530594Y-33611548D01*
X69530596Y-33611547D01*
X69535117Y-33610357D01*
X69775262Y-33507182D01*
X69814633Y-33482819D01*
X69993547Y-33372104D01*
X69993548Y-33372104D01*
X69997519Y-33369646D01*
X70001082Y-33366629D01*
X70001087Y-33366626D01*
X70193439Y-33203787D01*
X70193440Y-33203786D01*
X70197005Y-33200768D01*
X70288729Y-33096177D01*
X70366257Y-33007774D01*
X70366261Y-33007769D01*
X70369339Y-33004259D01*
X70510733Y-32784437D01*
X70618083Y-32546129D01*
X70689030Y-32294572D01*
X70722014Y-32035291D01*
X70724431Y-31943000D01*
X70705061Y-31682348D01*
X70647377Y-31427423D01*
X70552647Y-31183823D01*
X70422951Y-30956902D01*
X70261138Y-30751643D01*
X70070763Y-30572557D01*
X69856009Y-30423576D01*
X69851816Y-30421508D01*
X69625781Y-30310040D01*
X69625778Y-30310039D01*
X69621593Y-30307975D01*
X69575449Y-30293204D01*
X69377123Y-30229720D01*
X69372665Y-30228293D01*
X69114693Y-30186279D01*
X69000942Y-30184790D01*
X68858022Y-30182919D01*
X68858019Y-30182919D01*
X68853345Y-30182858D01*
X68594362Y-30218104D01*
X68343433Y-30291243D01*
X68339180Y-30293203D01*
X68339179Y-30293204D01*
X68302659Y-30310040D01*
X68106072Y-30400668D01*
X68067067Y-30426241D01*
X67891404Y-30541410D01*
X67891399Y-30541414D01*
X67887491Y-30543976D01*
X67692494Y-30718018D01*
X67525363Y-30918970D01*
X67522934Y-30922973D01*
X67401030Y-31123865D01*
X67348591Y-31171726D01*
X67293311Y-31184500D01*
X66962371Y-31184500D01*
X66894250Y-31164498D01*
X66873276Y-31147595D01*
X61258423Y-25532742D01*
X61224397Y-25470430D01*
X61226249Y-25409446D01*
X61271759Y-25248080D01*
X61271760Y-25248075D01*
X61273030Y-25243572D01*
X61284939Y-25149958D01*
X61285443Y-25146000D01*
X66674738Y-25146000D01*
X66693767Y-25448462D01*
X66750555Y-25746154D01*
X66844206Y-26034381D01*
X66973242Y-26308598D01*
X66975366Y-26311944D01*
X66975366Y-26311945D01*
X66981183Y-26321111D01*
X67135630Y-26564480D01*
X67138149Y-26567525D01*
X67138152Y-26567529D01*
X67185050Y-26624219D01*
X67328808Y-26797992D01*
X67549729Y-27005450D01*
X67794910Y-27183584D01*
X67798379Y-27185491D01*
X67798382Y-27185493D01*
X67963520Y-27276279D01*
X68060483Y-27329585D01*
X68064152Y-27331038D01*
X68064157Y-27331040D01*
X68333257Y-27437584D01*
X68342261Y-27441149D01*
X68635800Y-27516516D01*
X68936470Y-27554500D01*
X69239530Y-27554500D01*
X69540200Y-27516516D01*
X69833739Y-27441149D01*
X69842743Y-27437584D01*
X70111843Y-27331040D01*
X70111848Y-27331038D01*
X70115517Y-27329585D01*
X70212480Y-27276279D01*
X70377618Y-27185493D01*
X70377621Y-27185491D01*
X70381090Y-27183584D01*
X70626271Y-27005450D01*
X70847192Y-26797992D01*
X70990950Y-26624219D01*
X71037848Y-26567529D01*
X71037851Y-26567525D01*
X71040370Y-26564480D01*
X71194817Y-26321111D01*
X71200634Y-26311945D01*
X71200634Y-26311944D01*
X71202758Y-26308598D01*
X71331794Y-26034381D01*
X71425445Y-25746154D01*
X71482233Y-25448462D01*
X71501262Y-25146000D01*
X71482233Y-24843538D01*
X71425445Y-24545846D01*
X71331794Y-24257619D01*
X71202758Y-23983402D01*
X71040370Y-23727520D01*
X71018136Y-23700643D01*
X70981930Y-23656879D01*
X70847192Y-23494008D01*
X70626271Y-23286550D01*
X70381090Y-23108416D01*
X70377249Y-23106304D01*
X70118986Y-22964322D01*
X70118985Y-22964321D01*
X70115517Y-22962415D01*
X70111848Y-22960962D01*
X70111843Y-22960960D01*
X69837409Y-22852304D01*
X69837408Y-22852304D01*
X69833739Y-22850851D01*
X69540200Y-22775484D01*
X69239530Y-22737500D01*
X68936470Y-22737500D01*
X68635800Y-22775484D01*
X68342261Y-22850851D01*
X68338592Y-22852304D01*
X68338591Y-22852304D01*
X68064157Y-22960960D01*
X68064152Y-22960962D01*
X68060483Y-22962415D01*
X68057015Y-22964321D01*
X68057014Y-22964322D01*
X67798752Y-23106304D01*
X67794910Y-23108416D01*
X67549729Y-23286550D01*
X67328808Y-23494008D01*
X67194070Y-23656879D01*
X67157865Y-23700643D01*
X67135630Y-23727520D01*
X66973242Y-23983402D01*
X66844206Y-24257619D01*
X66750555Y-24545846D01*
X66693767Y-24843538D01*
X66674738Y-25146000D01*
X61285443Y-25146000D01*
X61305616Y-24987421D01*
X61305616Y-24987417D01*
X61306014Y-24984291D01*
X61306098Y-24981108D01*
X61308348Y-24895160D01*
X61308431Y-24892000D01*
X61289061Y-24631348D01*
X61279825Y-24590528D01*
X61232408Y-24380980D01*
X61231377Y-24376423D01*
X61136647Y-24132823D01*
X61006951Y-23905902D01*
X60845138Y-23700643D01*
X60654763Y-23521557D01*
X60440009Y-23372576D01*
X60435816Y-23370508D01*
X60209781Y-23259040D01*
X60209778Y-23259039D01*
X60205593Y-23256975D01*
X60159449Y-23242204D01*
X59961123Y-23178720D01*
X59956665Y-23177293D01*
X59698693Y-23135279D01*
X59584942Y-23133790D01*
X59442022Y-23131919D01*
X59442019Y-23131919D01*
X59437345Y-23131858D01*
X59178362Y-23167104D01*
X58927433Y-23240243D01*
X58923180Y-23242203D01*
X58923179Y-23242204D01*
X58872888Y-23265389D01*
X58690072Y-23349668D01*
X58651067Y-23375241D01*
X58475404Y-23490410D01*
X58475399Y-23490414D01*
X58471491Y-23492976D01*
X58276494Y-23667018D01*
X58109363Y-23867970D01*
X57973771Y-24091419D01*
X57872697Y-24332455D01*
X57808359Y-24585783D01*
X57782173Y-24845839D01*
X56305001Y-24845839D01*
X56289061Y-24631348D01*
X56279825Y-24590528D01*
X56232408Y-24380980D01*
X56231377Y-24376423D01*
X56136647Y-24132823D01*
X56006951Y-23905902D01*
X55845138Y-23700643D01*
X55654763Y-23521557D01*
X55440009Y-23372576D01*
X55435816Y-23370508D01*
X55209781Y-23259040D01*
X55209778Y-23259039D01*
X55205593Y-23256975D01*
X55159449Y-23242204D01*
X54961123Y-23178720D01*
X54956665Y-23177293D01*
X54698693Y-23135279D01*
X54584942Y-23133790D01*
X54442022Y-23131919D01*
X54442019Y-23131919D01*
X54437345Y-23131858D01*
X54178362Y-23167104D01*
X53927433Y-23240243D01*
X53923180Y-23242203D01*
X53923179Y-23242204D01*
X53872888Y-23265389D01*
X53690072Y-23349668D01*
X53651067Y-23375241D01*
X53475404Y-23490410D01*
X53475399Y-23490414D01*
X53471491Y-23492976D01*
X53276494Y-23667018D01*
X53109363Y-23867970D01*
X52973771Y-24091419D01*
X52872697Y-24332455D01*
X52808359Y-24585783D01*
X52782173Y-24845839D01*
X51305001Y-24845839D01*
X51289061Y-24631348D01*
X51279825Y-24590528D01*
X51232408Y-24380980D01*
X51231377Y-24376423D01*
X51136647Y-24132823D01*
X51006951Y-23905902D01*
X50845138Y-23700643D01*
X50654763Y-23521557D01*
X50440009Y-23372576D01*
X50435816Y-23370508D01*
X50209781Y-23259040D01*
X50209778Y-23259039D01*
X50205593Y-23256975D01*
X50159449Y-23242204D01*
X49961123Y-23178720D01*
X49956665Y-23177293D01*
X49698693Y-23135279D01*
X49584942Y-23133790D01*
X49442022Y-23131919D01*
X49442019Y-23131919D01*
X49437345Y-23131858D01*
X49178362Y-23167104D01*
X48927433Y-23240243D01*
X48923180Y-23242203D01*
X48923179Y-23242204D01*
X48872888Y-23265389D01*
X48690072Y-23349668D01*
X48651067Y-23375241D01*
X48475404Y-23490410D01*
X48475399Y-23490414D01*
X48471491Y-23492976D01*
X48276494Y-23667018D01*
X48109363Y-23867970D01*
X47973771Y-24091419D01*
X47872697Y-24332455D01*
X47808359Y-24585783D01*
X47782173Y-24845839D01*
X47782397Y-24850505D01*
X47782397Y-24850511D01*
X47788443Y-24976373D01*
X47794713Y-25106908D01*
X47845704Y-25363256D01*
X47934026Y-25609252D01*
X47936242Y-25613376D01*
X48007586Y-25746154D01*
X48057737Y-25839491D01*
X48060532Y-25843234D01*
X48060534Y-25843237D01*
X48211330Y-26045177D01*
X48211335Y-26045183D01*
X48214122Y-26048915D01*
X48217431Y-26052195D01*
X48217436Y-26052201D01*
X48396426Y-26229635D01*
X48399743Y-26232923D01*
X48403505Y-26235681D01*
X48403508Y-26235684D01*
X48520016Y-26321111D01*
X48610524Y-26387474D01*
X48614657Y-26389648D01*
X48614661Y-26389651D01*
X48719168Y-26444635D01*
X48770140Y-26494054D01*
X48786500Y-26556143D01*
X48786500Y-33430629D01*
X48766498Y-33498750D01*
X48749595Y-33519724D01*
X36313724Y-45955595D01*
X36251412Y-45989621D01*
X36224629Y-45992500D01*
X32653147Y-45992500D01*
X32585026Y-45972498D01*
X32543754Y-45929023D01*
X32452270Y-45768960D01*
X32449951Y-45764902D01*
X32288138Y-45559643D01*
X32097763Y-45380557D01*
X31883009Y-45231576D01*
X31878816Y-45229508D01*
X31652781Y-45118040D01*
X31652778Y-45118039D01*
X31648593Y-45115975D01*
X31602449Y-45101204D01*
X31404123Y-45037720D01*
X31399665Y-45036293D01*
X31141693Y-44994279D01*
X31027942Y-44992790D01*
X30885022Y-44990919D01*
X30885019Y-44990919D01*
X30880345Y-44990858D01*
X30621362Y-45026104D01*
X30370433Y-45099243D01*
X30366180Y-45101203D01*
X30366179Y-45101204D01*
X30329659Y-45118040D01*
X30133072Y-45208668D01*
X30094067Y-45234241D01*
X29918404Y-45349410D01*
X29918399Y-45349414D01*
X29914491Y-45351976D01*
X29910999Y-45355093D01*
X29724478Y-45521570D01*
X29719494Y-45526018D01*
X29552363Y-45726970D01*
X29549934Y-45730973D01*
X29433253Y-45923258D01*
X29416771Y-45950419D01*
X29315697Y-46191455D01*
X29251359Y-46444783D01*
X29225173Y-46704839D01*
X26670000Y-46704839D01*
X26670000Y-43160133D01*
X29943612Y-43160133D01*
X29952325Y-43171653D01*
X30050018Y-43243284D01*
X30057928Y-43248227D01*
X30280890Y-43365533D01*
X30289453Y-43369256D01*
X30527304Y-43452318D01*
X30536313Y-43454732D01*
X30783842Y-43501727D01*
X30793098Y-43502781D01*
X31044857Y-43512673D01*
X31054171Y-43512347D01*
X31304615Y-43484920D01*
X31313792Y-43483219D01*
X31557431Y-43419074D01*
X31566251Y-43416037D01*
X31797736Y-43316583D01*
X31806008Y-43312276D01*
X32020249Y-43179700D01*
X32027188Y-43174658D01*
X32035518Y-43162019D01*
X32029456Y-43151666D01*
X31000812Y-42123022D01*
X30986868Y-42115408D01*
X30985035Y-42115539D01*
X30978420Y-42119790D01*
X29950270Y-43147940D01*
X29943612Y-43160133D01*
X26670000Y-43160133D01*
X26670000Y-41709523D01*
X29225898Y-41709523D01*
X29237987Y-41961175D01*
X29239124Y-41970435D01*
X29288274Y-42217535D01*
X29290768Y-42226528D01*
X29375900Y-42463639D01*
X29379700Y-42472174D01*
X29498946Y-42694101D01*
X29503957Y-42701968D01*
X29567446Y-42786990D01*
X29578704Y-42795439D01*
X29591123Y-42788667D01*
X30615978Y-41763812D01*
X30622356Y-41752132D01*
X31352408Y-41752132D01*
X31352539Y-41753965D01*
X31356790Y-41760580D01*
X32387913Y-42791703D01*
X32400293Y-42798463D01*
X32408634Y-42792219D01*
X32534765Y-42596127D01*
X32539212Y-42587936D01*
X32642691Y-42358222D01*
X32645882Y-42349455D01*
X32714269Y-42106976D01*
X32716129Y-42097834D01*
X32748116Y-41846396D01*
X32748597Y-41840108D01*
X32750847Y-41754160D01*
X32750696Y-41747851D01*
X32731912Y-41495074D01*
X32730536Y-41485868D01*
X32674929Y-41240126D01*
X32672205Y-41231215D01*
X32580888Y-40996392D01*
X32576877Y-40987983D01*
X32451854Y-40769240D01*
X32446643Y-40761514D01*
X32409391Y-40714261D01*
X32397466Y-40705790D01*
X32385934Y-40712276D01*
X31360022Y-41738188D01*
X31352408Y-41752132D01*
X30622356Y-41752132D01*
X30623592Y-41749868D01*
X30623461Y-41748035D01*
X30619210Y-41741420D01*
X29589321Y-40711531D01*
X29576013Y-40704264D01*
X29565974Y-40711386D01*
X29555761Y-40723666D01*
X29550346Y-40731258D01*
X29419646Y-40946646D01*
X29415408Y-40954963D01*
X29317981Y-41187299D01*
X29315020Y-41196149D01*
X29253006Y-41440331D01*
X29251384Y-41449528D01*
X29226143Y-41700198D01*
X29225898Y-41709523D01*
X26670000Y-41709523D01*
X26670000Y-40339803D01*
X29941216Y-40339803D01*
X29945789Y-40349579D01*
X30975188Y-41378978D01*
X30989132Y-41386592D01*
X30990965Y-41386461D01*
X30997580Y-41382210D01*
X32026419Y-40353371D01*
X32032803Y-40341681D01*
X32023391Y-40329570D01*
X31886593Y-40234670D01*
X31878565Y-40229942D01*
X31652593Y-40118505D01*
X31643960Y-40115017D01*
X31403998Y-40038205D01*
X31394938Y-40036029D01*
X31146260Y-39995529D01*
X31136973Y-39994717D01*
X30885053Y-39991419D01*
X30875742Y-39991989D01*
X30626097Y-40025964D01*
X30616978Y-40027902D01*
X30375098Y-40098404D01*
X30366367Y-40101667D01*
X30137558Y-40207151D01*
X30129406Y-40211670D01*
X29950353Y-40329062D01*
X29941216Y-40339803D01*
X26670000Y-40339803D01*
X26670000Y-36704839D01*
X29225173Y-36704839D01*
X29225397Y-36709505D01*
X29225397Y-36709511D01*
X29230840Y-36822828D01*
X29237713Y-36965908D01*
X29288704Y-37222256D01*
X29377026Y-37468252D01*
X29398422Y-37508073D01*
X29486708Y-37672381D01*
X29500737Y-37698491D01*
X29503532Y-37702234D01*
X29503534Y-37702237D01*
X29654330Y-37904177D01*
X29654335Y-37904183D01*
X29657122Y-37907915D01*
X29660431Y-37911195D01*
X29660436Y-37911201D01*
X29839426Y-38088635D01*
X29842743Y-38091923D01*
X29846505Y-38094681D01*
X29846508Y-38094684D01*
X29986400Y-38197257D01*
X30053524Y-38246474D01*
X30057667Y-38248654D01*
X30057669Y-38248655D01*
X30280684Y-38365989D01*
X30280689Y-38365991D01*
X30284834Y-38368172D01*
X30531590Y-38454344D01*
X30536183Y-38455216D01*
X30783785Y-38502224D01*
X30783788Y-38502224D01*
X30788374Y-38503095D01*
X30918958Y-38508226D01*
X31044875Y-38513174D01*
X31044881Y-38513174D01*
X31049543Y-38513357D01*
X31128977Y-38504657D01*
X31304707Y-38485412D01*
X31304712Y-38485411D01*
X31309360Y-38484902D01*
X31422116Y-38455216D01*
X31557594Y-38419548D01*
X31557596Y-38419547D01*
X31562117Y-38418357D01*
X31802262Y-38315182D01*
X32024519Y-38177646D01*
X32028082Y-38174629D01*
X32028087Y-38174626D01*
X32220439Y-38011787D01*
X32220440Y-38011786D01*
X32224005Y-38008768D01*
X32324446Y-37894237D01*
X32393257Y-37815774D01*
X32393261Y-37815769D01*
X32396339Y-37812259D01*
X32414235Y-37784437D01*
X32535208Y-37596363D01*
X32535210Y-37596360D01*
X32537733Y-37592437D01*
X32541646Y-37583751D01*
X32587859Y-37529856D01*
X32656528Y-37509500D01*
X38599032Y-37509500D01*
X38667153Y-37529502D01*
X38680026Y-37538981D01*
X38681070Y-37539857D01*
X38684962Y-37543749D01*
X38865346Y-37670056D01*
X39064924Y-37763120D01*
X39277629Y-37820115D01*
X39497000Y-37839307D01*
X39716371Y-37820115D01*
X39929076Y-37763120D01*
X40128654Y-37670056D01*
X40259647Y-37578333D01*
X40304527Y-37546908D01*
X40304529Y-37546906D01*
X40309038Y-37543749D01*
X40464749Y-37388038D01*
X40577754Y-37226651D01*
X40587899Y-37212162D01*
X40587900Y-37212160D01*
X40591056Y-37207653D01*
X40593379Y-37202671D01*
X40593382Y-37202666D01*
X40681795Y-37013061D01*
X40684120Y-37008076D01*
X40741115Y-36795371D01*
X40760307Y-36576000D01*
X40741115Y-36356629D01*
X40684120Y-36143924D01*
X40613510Y-35992500D01*
X40593382Y-35949334D01*
X40593379Y-35949329D01*
X40591056Y-35944347D01*
X40475539Y-35779371D01*
X40467908Y-35768473D01*
X40467906Y-35768470D01*
X40464749Y-35763962D01*
X40340405Y-35639618D01*
X40306379Y-35577306D01*
X40303500Y-35550523D01*
X40303500Y-26560892D01*
X40323502Y-26492771D01*
X40363197Y-26453747D01*
X40577547Y-26321104D01*
X40577548Y-26321104D01*
X40581519Y-26318646D01*
X40585082Y-26315629D01*
X40585087Y-26315626D01*
X40602207Y-26301133D01*
X43500612Y-26301133D01*
X43509325Y-26312653D01*
X43607018Y-26384284D01*
X43614928Y-26389227D01*
X43837890Y-26506533D01*
X43846453Y-26510256D01*
X44084304Y-26593318D01*
X44093313Y-26595732D01*
X44340842Y-26642727D01*
X44350098Y-26643781D01*
X44601857Y-26653673D01*
X44611171Y-26653347D01*
X44861615Y-26625920D01*
X44870792Y-26624219D01*
X45114431Y-26560074D01*
X45123251Y-26557037D01*
X45354736Y-26457583D01*
X45363008Y-26453276D01*
X45577249Y-26320700D01*
X45584188Y-26315658D01*
X45592518Y-26303019D01*
X45586456Y-26292666D01*
X44557812Y-25264022D01*
X44543868Y-25256408D01*
X44542035Y-25256539D01*
X44535420Y-25260790D01*
X43507270Y-26288940D01*
X43500612Y-26301133D01*
X40602207Y-26301133D01*
X40777439Y-26152787D01*
X40777440Y-26152786D01*
X40781005Y-26149768D01*
X40872729Y-26045177D01*
X40950257Y-25956774D01*
X40950261Y-25956769D01*
X40953339Y-25953259D01*
X41094733Y-25733437D01*
X41202083Y-25495129D01*
X41240607Y-25358535D01*
X41271760Y-25248076D01*
X41271761Y-25248073D01*
X41273030Y-25243572D01*
X41284939Y-25149958D01*
X41305616Y-24987421D01*
X41305616Y-24987417D01*
X41306014Y-24984291D01*
X41306098Y-24981108D01*
X41308348Y-24895160D01*
X41308431Y-24892000D01*
X41305349Y-24850523D01*
X42782898Y-24850523D01*
X42794987Y-25102175D01*
X42796124Y-25111435D01*
X42845274Y-25358535D01*
X42847768Y-25367528D01*
X42932900Y-25604639D01*
X42936700Y-25613174D01*
X43055946Y-25835101D01*
X43060957Y-25842968D01*
X43124446Y-25927990D01*
X43135704Y-25936439D01*
X43148123Y-25929667D01*
X44172978Y-24904812D01*
X44179356Y-24893132D01*
X44909408Y-24893132D01*
X44909539Y-24894965D01*
X44913790Y-24901580D01*
X45944913Y-25932703D01*
X45957293Y-25939463D01*
X45965634Y-25933219D01*
X46091765Y-25737127D01*
X46096212Y-25728936D01*
X46199691Y-25499222D01*
X46202882Y-25490455D01*
X46271269Y-25247976D01*
X46273129Y-25238834D01*
X46305116Y-24987396D01*
X46305597Y-24981108D01*
X46307847Y-24895160D01*
X46307696Y-24888851D01*
X46288912Y-24636074D01*
X46287536Y-24626868D01*
X46231929Y-24381126D01*
X46229205Y-24372215D01*
X46137888Y-24137392D01*
X46133877Y-24128983D01*
X46008854Y-23910240D01*
X46003643Y-23902514D01*
X45966391Y-23855261D01*
X45954466Y-23846790D01*
X45942934Y-23853276D01*
X44917022Y-24879188D01*
X44909408Y-24893132D01*
X44179356Y-24893132D01*
X44180592Y-24890868D01*
X44180461Y-24889035D01*
X44176210Y-24882420D01*
X43146321Y-23852531D01*
X43133013Y-23845264D01*
X43122974Y-23852386D01*
X43112761Y-23864666D01*
X43107346Y-23872258D01*
X42976646Y-24087646D01*
X42972408Y-24095963D01*
X42874981Y-24328299D01*
X42872020Y-24337149D01*
X42810006Y-24581331D01*
X42808384Y-24590528D01*
X42783143Y-24841198D01*
X42782898Y-24850523D01*
X41305349Y-24850523D01*
X41289061Y-24631348D01*
X41279825Y-24590528D01*
X41232408Y-24380980D01*
X41231377Y-24376423D01*
X41136647Y-24132823D01*
X41006951Y-23905902D01*
X40845138Y-23700643D01*
X40654763Y-23521557D01*
X40596017Y-23480803D01*
X43498216Y-23480803D01*
X43502789Y-23490579D01*
X44532188Y-24519978D01*
X44546132Y-24527592D01*
X44547965Y-24527461D01*
X44554580Y-24523210D01*
X45583419Y-23494371D01*
X45589803Y-23482681D01*
X45580391Y-23470570D01*
X45443593Y-23375670D01*
X45435565Y-23370942D01*
X45209593Y-23259505D01*
X45200960Y-23256017D01*
X44960998Y-23179205D01*
X44951938Y-23177029D01*
X44703260Y-23136529D01*
X44693973Y-23135717D01*
X44442053Y-23132419D01*
X44432742Y-23132989D01*
X44183097Y-23166964D01*
X44173978Y-23168902D01*
X43932098Y-23239404D01*
X43923367Y-23242667D01*
X43694558Y-23348151D01*
X43686406Y-23352670D01*
X43507353Y-23470062D01*
X43498216Y-23480803D01*
X40596017Y-23480803D01*
X40440009Y-23372576D01*
X40435816Y-23370508D01*
X40209781Y-23259040D01*
X40209778Y-23259039D01*
X40205593Y-23256975D01*
X40159449Y-23242204D01*
X39961123Y-23178720D01*
X39956665Y-23177293D01*
X39698693Y-23135279D01*
X39584942Y-23133790D01*
X39442022Y-23131919D01*
X39442019Y-23131919D01*
X39437345Y-23131858D01*
X39178362Y-23167104D01*
X38927433Y-23240243D01*
X38923180Y-23242203D01*
X38923179Y-23242204D01*
X38872888Y-23265389D01*
X38690072Y-23349668D01*
X38651067Y-23375241D01*
X38475404Y-23490410D01*
X38475399Y-23490414D01*
X38471491Y-23492976D01*
X38276494Y-23667018D01*
X38109363Y-23867970D01*
X37973771Y-24091419D01*
X37872697Y-24332455D01*
X37808359Y-24585783D01*
X37782173Y-24845839D01*
X37782397Y-24850505D01*
X37782397Y-24850511D01*
X37788443Y-24976373D01*
X37794713Y-25106908D01*
X37845704Y-25363256D01*
X37934026Y-25609252D01*
X37936242Y-25613376D01*
X38007586Y-25746154D01*
X38057737Y-25839491D01*
X38060532Y-25843234D01*
X38060534Y-25843237D01*
X38211330Y-26045177D01*
X38211335Y-26045183D01*
X38214122Y-26048915D01*
X38217431Y-26052195D01*
X38217436Y-26052201D01*
X38396426Y-26229635D01*
X38399743Y-26232923D01*
X38403505Y-26235681D01*
X38403508Y-26235684D01*
X38520016Y-26321111D01*
X38610524Y-26387474D01*
X38614657Y-26389648D01*
X38614661Y-26389651D01*
X38719168Y-26444635D01*
X38770140Y-26494054D01*
X38786500Y-26556143D01*
X38786500Y-35471562D01*
X38766498Y-35539683D01*
X38732770Y-35574775D01*
X38689478Y-35605088D01*
X38689472Y-35605093D01*
X38684962Y-35608251D01*
X38529251Y-35763962D01*
X38526094Y-35768470D01*
X38526092Y-35768473D01*
X38406848Y-35938771D01*
X38351391Y-35983099D01*
X38303635Y-35992500D01*
X32653147Y-35992500D01*
X32585026Y-35972498D01*
X32543754Y-35929023D01*
X32515999Y-35880462D01*
X32449951Y-35764902D01*
X32288138Y-35559643D01*
X32097763Y-35380557D01*
X31883009Y-35231576D01*
X31858343Y-35219412D01*
X31652781Y-35118040D01*
X31652778Y-35118039D01*
X31648593Y-35115975D01*
X31602449Y-35101204D01*
X31404123Y-35037720D01*
X31399665Y-35036293D01*
X31141693Y-34994279D01*
X31027942Y-34992790D01*
X30885022Y-34990919D01*
X30885019Y-34990919D01*
X30880345Y-34990858D01*
X30621362Y-35026104D01*
X30370433Y-35099243D01*
X30366180Y-35101203D01*
X30366179Y-35101204D01*
X30329659Y-35118040D01*
X30133072Y-35208668D01*
X30094067Y-35234241D01*
X29918404Y-35349410D01*
X29918399Y-35349414D01*
X29914491Y-35351976D01*
X29719494Y-35526018D01*
X29552363Y-35726970D01*
X29549934Y-35730973D01*
X29420456Y-35944347D01*
X29416771Y-35950419D01*
X29315697Y-36191455D01*
X29251359Y-36444783D01*
X29225173Y-36704839D01*
X26670000Y-36704839D01*
X26670000Y-25400000D01*
X28066738Y-25400000D01*
X28085767Y-25702462D01*
X28142555Y-26000154D01*
X28159466Y-26052201D01*
X28218187Y-26232923D01*
X28236206Y-26288381D01*
X28237893Y-26291967D01*
X28237895Y-26291971D01*
X28251414Y-26320700D01*
X28365242Y-26562598D01*
X28367366Y-26565944D01*
X28367366Y-26565945D01*
X28386577Y-26596216D01*
X28527630Y-26818480D01*
X28720808Y-27051992D01*
X28723695Y-27054703D01*
X28874492Y-27196310D01*
X28941729Y-27259450D01*
X29186910Y-27437584D01*
X29190379Y-27439491D01*
X29190382Y-27439493D01*
X29331390Y-27517013D01*
X29452483Y-27583585D01*
X29456152Y-27585038D01*
X29456157Y-27585040D01*
X29730591Y-27693696D01*
X29734261Y-27695149D01*
X30027800Y-27770516D01*
X30328470Y-27808500D01*
X30631530Y-27808500D01*
X30932200Y-27770516D01*
X31225739Y-27695149D01*
X31229409Y-27693696D01*
X31503843Y-27585040D01*
X31503848Y-27585038D01*
X31507517Y-27583585D01*
X31628610Y-27517013D01*
X31769618Y-27439493D01*
X31769621Y-27439491D01*
X31773090Y-27437584D01*
X32018271Y-27259450D01*
X32085509Y-27196310D01*
X32236305Y-27054703D01*
X32239192Y-27051992D01*
X32432370Y-26818480D01*
X32573423Y-26596216D01*
X32592634Y-26565945D01*
X32592634Y-26565944D01*
X32594758Y-26562598D01*
X32708586Y-26320700D01*
X32722105Y-26291971D01*
X32722107Y-26291967D01*
X32723794Y-26288381D01*
X32741814Y-26232923D01*
X32800534Y-26052201D01*
X32817445Y-26000154D01*
X32874233Y-25702462D01*
X32893262Y-25400000D01*
X32874233Y-25097538D01*
X32817445Y-24799846D01*
X32723794Y-24511619D01*
X32594758Y-24237402D01*
X32432370Y-23981520D01*
X32239192Y-23748008D01*
X32018271Y-23540550D01*
X31773090Y-23362416D01*
X31755363Y-23352670D01*
X31510986Y-23218322D01*
X31510985Y-23218321D01*
X31507517Y-23216415D01*
X31503848Y-23214962D01*
X31503843Y-23214960D01*
X31229409Y-23106304D01*
X31229408Y-23106304D01*
X31225739Y-23104851D01*
X30932200Y-23029484D01*
X30631530Y-22991500D01*
X30328470Y-22991500D01*
X30027800Y-23029484D01*
X29734261Y-23104851D01*
X29730592Y-23106304D01*
X29730591Y-23106304D01*
X29456157Y-23214960D01*
X29456152Y-23214962D01*
X29452483Y-23216415D01*
X29449015Y-23218321D01*
X29449014Y-23218322D01*
X29204638Y-23352670D01*
X29186910Y-23362416D01*
X28941729Y-23540550D01*
X28720808Y-23748008D01*
X28527630Y-23981520D01*
X28365242Y-24237402D01*
X28236206Y-24511619D01*
X28142555Y-24799846D01*
X28085767Y-25097538D01*
X28066738Y-25400000D01*
X26670000Y-25400000D01*
X26670000Y-21335000D01*
X26690002Y-21266879D01*
X26743658Y-21220386D01*
X26796000Y-21209000D01*
X72899000Y-21209000D01*
X72967121Y-21229002D01*
G37*
%TD.AperFunction*%
%TD*%
M02*
