M48
; DRILL file {KiCad 6.0.2+dfsg-1} date lun 17 abr 2023 16:54:41
; FORMAT={-:-/ absolute / inch / decimal}
; #@! TF.CreationDate,2023-04-17T16:54:41+02:00
; #@! TF.GenerationSoftware,Kicad,Pcbnew,6.0.2+dfsg-1
; #@! TF.FileFunction,Plated,1,2,PTH
FMAT,2
INCH
; #@! TA.AperFunction,Plated,PTH,ViaDrill
T1C0.0197
; #@! TA.AperFunction,Plated,PTH,ComponentDrill
T2C0.0591
; #@! TA.AperFunction,Plated,PTH,ComponentDrill
T3C0.0866
%
G90
G05
T1
X1.555Y-1.44
X1.975Y-1.89
X2.025Y-1.625
X2.255Y-1.4
T2
X1.22Y-1.4469
X1.22Y-1.6437
X1.22Y-1.8406
X1.22Y-2.0374
X1.5569Y-0.98
X1.7537Y-0.98
X1.9506Y-0.98
X2.1474Y-0.98
X2.3443Y-0.98
X2.715Y-1.2576
X2.715Y-1.4544
X2.715Y-1.6513
X2.715Y-1.8481
X2.715Y-2.045
T3
X1.2Y-1.0
X1.21Y-2.305
X2.72Y-0.99
X2.735Y-2.325
T0
M30
