%TF.GenerationSoftware,KiCad,Pcbnew,6.0.2+dfsg-1*%
%TF.CreationDate,2023-03-15T19:16:12+01:00*%
%TF.ProjectId,main_PCB,6d61696e-5f50-4434-922e-6b696361645f,rev?*%
%TF.SameCoordinates,Original*%
%TF.FileFunction,AssemblyDrawing,Bot*%
%FSLAX46Y46*%
G04 Gerber Fmt 4.6, Leading zero omitted, Abs format (unit mm)*
G04 Created by KiCad (PCBNEW 6.0.2+dfsg-1) date 2023-03-15 19:16:12*
%MOMM*%
%LPD*%
G01*
G04 APERTURE LIST*
%ADD10C,0.150000*%
%ADD11C,0.100000*%
G04 APERTURE END LIST*
D10*
%TO.C,J1*%
X158153533Y-104780780D02*
X158153533Y-105495066D01*
X158201152Y-105637923D01*
X158296390Y-105733161D01*
X158439247Y-105780780D01*
X158534485Y-105780780D01*
X157153533Y-105780780D02*
X157724961Y-105780780D01*
X157439247Y-105780780D02*
X157439247Y-104780780D01*
X157534485Y-104923638D01*
X157629723Y-105018876D01*
X157724961Y-105066495D01*
%TO.C,J2*%
X158153533Y-46780780D02*
X158153533Y-47495066D01*
X158201152Y-47637923D01*
X158296390Y-47733161D01*
X158439247Y-47780780D01*
X158534485Y-47780780D01*
X157724961Y-46876019D02*
X157677342Y-46828400D01*
X157582104Y-46780780D01*
X157344009Y-46780780D01*
X157248771Y-46828400D01*
X157201152Y-46876019D01*
X157153533Y-46971257D01*
X157153533Y-47066495D01*
X157201152Y-47209352D01*
X157772580Y-47780780D01*
X157153533Y-47780780D01*
D11*
%TO.C,J1*%
X181950200Y-107868400D02*
X181950200Y-102788400D01*
X133690200Y-102788400D02*
X133690200Y-106868400D01*
X181950200Y-102788400D02*
X133690200Y-102788400D01*
X133690200Y-106868400D02*
X134690200Y-107868400D01*
X134690200Y-107868400D02*
X181950200Y-107868400D01*
%TO.C,J2*%
X181950200Y-49868400D02*
X181950200Y-44788400D01*
X133690200Y-48868400D02*
X134690200Y-49868400D01*
X181950200Y-44788400D02*
X133690200Y-44788400D01*
X134690200Y-49868400D02*
X181950200Y-49868400D01*
X133690200Y-44788400D02*
X133690200Y-48868400D01*
%TD*%
M02*
